<mxfile host="65bd71144e">
    <diagram id="DS900f8bse7f0kdsh0Ps" name="Página-1">
        <mxGraphModel dx="1120" dy="790" grid="1" gridSize="10" guides="1" tooltips="1" connect="1" arrows="1" fold="1" page="1" pageScale="1" pageWidth="827" pageHeight="1169" math="0" shadow="0">
            <root>
                <mxCell id="0"/>
                <mxCell id="1" parent="0"/>
                <mxCell id="5" style="edgeStyle=none;html=1;exitX=1;exitY=0.5;exitDx=0;exitDy=0;" parent="1" source="2" target="4" edge="1">
                    <mxGeometry relative="1" as="geometry"/>
                </mxCell>
                <mxCell id="9" style="edgeStyle=none;html=1;exitX=0.5;exitY=1;exitDx=0;exitDy=0;entryX=0.5;entryY=0;entryDx=0;entryDy=0;" parent="1" source="2" target="6" edge="1">
                    <mxGeometry relative="1" as="geometry"/>
                </mxCell>
                <mxCell id="2" value="Apresentação" style="rounded=1;whiteSpace=wrap;html=1;fillColor=#6a00ff;strokeColor=#3700CC;fontColor=#ffffff;" parent="1" vertex="1">
                    <mxGeometry x="354" y="40" width="120" height="60" as="geometry"/>
                </mxCell>
                <mxCell id="4" value="Entrada do aplicativo,&amp;nbsp; apresentação ao estilo ZAP ZAP" style="text;html=1;strokeColor=none;fillColor=none;align=center;verticalAlign=middle;whiteSpace=wrap;rounded=0;" parent="1" vertex="1">
                    <mxGeometry x="510" y="60" width="160" height="20" as="geometry"/>
                </mxCell>
                <mxCell id="8" style="edgeStyle=none;html=1;exitX=1;exitY=0.5;exitDx=0;exitDy=0;" parent="1" source="6" target="7" edge="1">
                    <mxGeometry relative="1" as="geometry"/>
                </mxCell>
                <mxCell id="12" value="" style="edgeStyle=none;html=1;" parent="1" source="6" target="10" edge="1">
                    <mxGeometry relative="1" as="geometry"/>
                </mxCell>
                <mxCell id="6" value="Login/Senha" style="rounded=1;whiteSpace=wrap;html=1;fillColor=#6a00ff;strokeColor=#3700CC;fontColor=#ffffff;" parent="1" vertex="1">
                    <mxGeometry x="354" y="160" width="120" height="60" as="geometry"/>
                </mxCell>
                <mxCell id="7" value="Login: CPF&lt;br&gt;Senha: Cadastro" style="text;html=1;align=center;verticalAlign=middle;whiteSpace=wrap;rounded=0;" parent="1" vertex="1">
                    <mxGeometry x="510" y="180" width="160" height="20" as="geometry"/>
                </mxCell>
                <mxCell id="20" style="edgeStyle=none;html=1;exitX=0.5;exitY=1;exitDx=0;exitDy=0;entryX=0.5;entryY=0;entryDx=0;entryDy=0;rounded=0;" parent="1" source="10" target="14" edge="1">
                    <mxGeometry relative="1" as="geometry">
                        <Array as="points">
                            <mxPoint x="413" y="400"/>
                            <mxPoint x="370" y="400"/>
                            <mxPoint x="330" y="400"/>
                            <mxPoint x="250" y="400"/>
                            <mxPoint x="130" y="400"/>
                        </Array>
                    </mxGeometry>
                </mxCell>
                <mxCell id="22" style="edgeStyle=none;rounded=0;html=1;exitX=0.5;exitY=1;exitDx=0;exitDy=0;entryX=0.5;entryY=0;entryDx=0;entryDy=0;" parent="1" source="10" target="15" edge="1">
                    <mxGeometry relative="1" as="geometry">
                        <Array as="points">
                            <mxPoint x="413" y="400"/>
                            <mxPoint x="510" y="400"/>
                        </Array>
                    </mxGeometry>
                </mxCell>
                <mxCell id="23" style="edgeStyle=none;rounded=0;html=1;exitX=0.5;exitY=1;exitDx=0;exitDy=0;entryX=0.5;entryY=0;entryDx=0;entryDy=0;" parent="1" source="10" target="16" edge="1">
                    <mxGeometry relative="1" as="geometry">
                        <Array as="points">
                            <mxPoint x="413" y="400"/>
                            <mxPoint x="500" y="400"/>
                            <mxPoint x="580" y="400"/>
                            <mxPoint x="700" y="400"/>
                        </Array>
                    </mxGeometry>
                </mxCell>
                <mxCell id="31" style="edgeStyle=none;rounded=0;html=1;exitX=0.5;exitY=1;exitDx=0;exitDy=0;entryX=0.5;entryY=0;entryDx=0;entryDy=0;" parent="1" source="10" target="30" edge="1">
                    <mxGeometry relative="1" as="geometry">
                        <Array as="points">
                            <mxPoint x="413" y="400"/>
                            <mxPoint x="320" y="400"/>
                        </Array>
                    </mxGeometry>
                </mxCell>
                <mxCell id="10" value="Menu do APP" style="rounded=1;whiteSpace=wrap;html=1;fillColor=#6a00ff;strokeColor=#3700CC;fontColor=#ffffff;" parent="1" vertex="1">
                    <mxGeometry x="353" y="290" width="120" height="60" as="geometry"/>
                </mxCell>
                <mxCell id="29" value="" style="edgeStyle=none;rounded=0;html=1;entryX=0.5;entryY=0;entryDx=0;entryDy=0;" parent="1" source="14" target="25" edge="1">
                    <mxGeometry relative="1" as="geometry"/>
                </mxCell>
                <mxCell id="14" value="Home" style="rounded=1;whiteSpace=wrap;html=1;fillColor=#1ba1e2;strokeColor=#006EAF;fontColor=#ffffff;" parent="1" vertex="1">
                    <mxGeometry x="70" y="420" width="120" height="60" as="geometry"/>
                </mxCell>
                <mxCell id="43" style="edgeStyle=none;rounded=0;html=1;exitX=0.5;exitY=1;exitDx=0;exitDy=0;entryX=0.5;entryY=0;entryDx=0;entryDy=0;" parent="1" source="15" target="38" edge="1">
                    <mxGeometry relative="1" as="geometry"/>
                </mxCell>
                <mxCell id="15" value="Perfil" style="rounded=1;whiteSpace=wrap;html=1;fillColor=#d80073;strokeColor=#A50040;fontColor=#ffffff;" parent="1" vertex="1">
                    <mxGeometry x="450" y="420" width="120" height="60" as="geometry"/>
                </mxCell>
                <mxCell id="48" style="edgeStyle=none;rounded=0;html=1;exitX=0.5;exitY=1;exitDx=0;exitDy=0;entryX=0.5;entryY=0;entryDx=0;entryDy=0;" parent="1" source="16" target="44" edge="1">
                    <mxGeometry relative="1" as="geometry"/>
                </mxCell>
                <mxCell id="16" value="Mais" style="rounded=1;whiteSpace=wrap;html=1;fillColor=#fa6800;strokeColor=#C73500;fontColor=#000000;" parent="1" vertex="1">
                    <mxGeometry x="640" y="420" width="120" height="60" as="geometry"/>
                </mxCell>
                <mxCell id="21" value="Abre o aplicativo direto na Home" style="text;html=1;strokeColor=none;fillColor=none;align=center;verticalAlign=middle;whiteSpace=wrap;rounded=0;" parent="1" vertex="1">
                    <mxGeometry x="50" y="370" width="160" height="20" as="geometry"/>
                </mxCell>
                <mxCell id="25" value="List" style="swimlane;fontStyle=0;childLayout=stackLayout;horizontal=1;startSize=26;horizontalStack=0;resizeParent=1;resizeParentMax=0;resizeLast=0;collapsible=1;marginBottom=0;fillColor=#1ba1e2;strokeColor=#006EAF;fontColor=#ffffff;" parent="1" vertex="1">
                    <mxGeometry x="60" y="520" width="140" height="104" as="geometry"/>
                </mxCell>
                <mxCell id="26" value="Saldo" style="text;strokeColor=none;fillColor=none;align=left;verticalAlign=top;spacingLeft=4;spacingRight=4;overflow=hidden;rotatable=0;points=[[0,0.5],[1,0.5]];portConstraint=eastwest;" parent="25" vertex="1">
                    <mxGeometry y="26" width="140" height="26" as="geometry"/>
                </mxCell>
                <mxCell id="27" value="Tarifa do Onibus" style="text;strokeColor=none;fillColor=none;align=left;verticalAlign=top;spacingLeft=4;spacingRight=4;overflow=hidden;rotatable=0;points=[[0,0.5],[1,0.5]];portConstraint=eastwest;" parent="25" vertex="1">
                    <mxGeometry y="52" width="140" height="26" as="geometry"/>
                </mxCell>
                <mxCell id="28" value="Recarga" style="text;strokeColor=none;fillColor=none;align=left;verticalAlign=top;spacingLeft=4;spacingRight=4;overflow=hidden;rotatable=0;points=[[0,0.5],[1,0.5]];portConstraint=eastwest;" parent="25" vertex="1">
                    <mxGeometry y="78" width="140" height="26" as="geometry"/>
                </mxCell>
                <mxCell id="36" style="edgeStyle=none;rounded=0;html=1;exitX=0.5;exitY=1;exitDx=0;exitDy=0;entryX=0.5;entryY=0;entryDx=0;entryDy=0;" parent="1" source="30" target="35" edge="1">
                    <mxGeometry relative="1" as="geometry"/>
                </mxCell>
                <mxCell id="30" value="Extrato" style="rounded=1;whiteSpace=wrap;html=1;fillColor=#a20025;strokeColor=#6F0000;fontColor=#ffffff;" parent="1" vertex="1">
                    <mxGeometry x="260" y="420" width="120" height="60" as="geometry"/>
                </mxCell>
                <mxCell id="34" value="Divido por Mês/Ano&lt;br&gt;&lt;br&gt;Igual ao caixa tem" style="text;html=1;strokeColor=none;fillColor=none;align=center;verticalAlign=middle;whiteSpace=wrap;rounded=0;" parent="1" vertex="1">
                    <mxGeometry x="275" y="720" width="90" height="20" as="geometry"/>
                </mxCell>
                <mxCell id="35" value="" style="shape=image;verticalLabelPosition=bottom;labelBackgroundColor=#ffffff;verticalAlign=top;aspect=fixed;imageAspect=0;image=data:image/png,iVBORw0KGgoAAAANSUhEUgAAAtAAAAMhCAIAAABOjBHDAAAAAXNSR0IArs4c6QAAAANzQklUCAgI2+FP4AAAIABJREFUeJzs3XdcFEcbB/C5QpXeQRSQItgVBcGGGkUjit3E2DUmliQaS0w0aizRN7ZYEqMmMUZFY8XYKyjSbCgWAqiAAlKFox5w5f1jYD2Pox0sd+Lv+/GPvd3Z3VmXu3tuduYZjsbGJAIAAADAJq6qKwAAAABNHwIOAAAAYB0CDgAAAGAdAg4AAABgHQIOAAAAYB0CDgAAAGAdAg4AAABgHQIOAAAAYB0CDgAAAGAdAg4AAABgHQIOAAAAYB0CDgAAAGAdAg4AAABgHQIOAAAAYB0CDgAAAGAdRyqVqroOAAAA0MShhQMAAABYh4ADAAAAWIeAAwAAAFiHgAMAAABYh4ADAAAAWIeAAwAAAFiHgAMAAABYh4ADAAAAWIeAAwAAAFiHgAMAAABYh4ADAAAAWIeAAwAAAFiHgAMAAABYh4ADAAAAWIeAAwAAAFjHV3UFAEAZL3JKIhPzH6QUxqYXJ74WpuWV5RaLhCKJVKrqmjUcDodo87lGOnwrAw17E+3WljodmzfztNdvaayl6qoBQJ1xpE3p8wmgqQt5lnfqYfbFJzkx6cWqrovKuFnq+LYx9m9v2svRQNV1AYDaQsAB8A4QCMV7QtP2Raa/z3FGZW6WOpM9LT/tYWWozVN1XQCgBgg4ANSaQCjecCV5a3BqcZlE1XVRUzoa3K98bBZ9YIuwA0CdIeAAUF87brz64fyLnCKRqivyDjDW5a8Y3HJub2tVVwQAFEPAAaCOolMLF5xICIoXqLoi75i+zoabRjp0sGmm6ooAgDwEHABq5/ewtFlHnuGtqRwOh+wc6zjD20rVFQGAtyDgAFAvCwMTfg5KVXUt3nnz+tpsHO6g6loAwBsIOADUyMS/4w7dzVR1LZqIj93N909yUXUtAKAcAg4AdTHmj/9ORmeruhZNyogOpkenu6q6FgBACFKbA6iJiX/HIdpocCejsyf+HafqWgAAIQg4ANTBwsAEPElhyaG7mQsDE1RdCwBAwAGgar+HpaGXKKt+Dkr9PSxN1bUAeN+hDweAKkWnFrr/dB/vQrZxOOTu4k7IzwGgQmjhAFClBScSEG00AqmULDiBBysAqoSAA0Bldtx4hVyijSYoXrDjxitV1wLg/YWAA0A1BELxD+dfqLoW75cfzr8QCMWqrgXAewoBB4BqbLiSjFnZGllOkWjDlWRV1wLgPYWAA0AFBELx1mCMTFGBrcGpaOQAUAkEHAAqsCc0rbhMoupavI+KyyR7QjFEFkAFEHAAqMC+yHRVV+H9hf98AJVAwAHQ2EKe5cWkF6u6Fu+vmPTikGd5qq4FwHuHz+rRCwsL8/PzuVyuoaGhlpZWjeVLSkpyc3O5XK6RkZGGhkaDHx8aDW59NU49bFJzpriY69gaa5aJpc+zhCmC0hrLNzfUdLbQEUmksenFmQVlDX782jj1MLuXo0GDHEolpFJpQUFBfn6+pqamgYGBpqZm7felO2praxsaGnK5DfObE+935Uil0tzc3OLiYiXuowopfburDDi2bNny6NEjQoinp+fMmTOrKhYTE7Nx40ZCyLx589q3b09XlpaWXr58+dKlS0lJSXQNj8dzdXUdNmyYp6enwuM8efLk2LFjDx48EIvFhBANDY2uXbuOHj3a0dGxcmEljs8oLi6+fft2UFBQly5dhg4dWn1hdbB27drnz58TQnx8fCZOnEhX/vfffxs2bKDL69ats7CwqLzj999/n5qaSggZOHDguHHj6MpZs2aVlpYSQtq0abNgwQKFZwwICLh69SohxM7Obvny5VVVDLdeaRef5NSm2K2FHR1MtQkhV+NyP9obS1dO8rDYNMKBLo/8PUbhL/XobztbG2gSQs49yZm8v3zqspQ1Hpo8DiHkr8iMRXWcW2Rqd8uf/O0JIcvOJO2q6ABhbaC5ZKCtf3sTW6PyTxyJlMRlFP99K/2nKykKjzPdy3JOL+t2Ns24HEIIEUmkUS8LNgelHo3KqlxYieMzHEy1J3ta+Lc3CUvIn3PkWeUCF5/kbBzuUItLZ1doaOiff/5JCOHz+T///LOOjk6Nu6Smpv7777+RkZE5OeV/RTwez8nJqX///j4+PtV8YwkEgtOnT4eEhKSnlz9R0tbW7tatm5+fX+vWrWs8L97vDev58+fnzp2LjIzMz8+na3g8Xtu2bQcNGtS9e3e5QJD53K6Gjo7Ojh07IiIi9uzZU/tqTJs2rUePHpXXs3S7qww48vPzs7Oz6UI11Q0ODs7OztbT03N1LZ8DOi8vb+3atbGxsbLFxGLx48ePHz9+PHTo0OnTp8sdJDAw8K+//pJdU1ZWFh4eHhER8eWXX/bt21d2kxLHJ4RIJJJHjx4FBweHhoaWlJQQQjp06FDNdakPgUBAb0RRURGzUiQS0ZWEEIlEcd/DnJycyjtmZ2fTP9yQkJDu3bsr/FMrKiqiOxoaGlZTMdx65bzIKanl8xRDHb6xLp8QoqfJY1Zq87l0JSFEg8dRuKNRxY76Wm92NNHl0/LNNOv8o3ZsZzNjXX5hqfjEg/K/unbWusemuzmZa8sW43KIq6XOj0PtvR0Mhu+JkTvIb+OcZnhbyq7hcznd7PQDJrfu2LzZsjNJspuUOD693gndLEZ1MvVuZUCjq1tJBQqvKCa9+EVOSUtjFf9WvnTpEvNGjoiIkPuDr+zs2bN//vkn/exmiMXi2NjY2NjYy5cvf/fdd8bGxpV3vHv37ubNmwsLC2VXCoXCkJCQkJCQoUOHTp06tfrWDrzfG9CxY8cOHjwoN6+IWCyOjo6Ojo729PT8+uuvZVsOmM/tatBotbS0lPmLqo2qDsvS7a7XI5WSkpIbN24QQnx8fGizmFQq3bJlC60Th8Pp3r27k5NTbm7uzZs3aTx++vRpZ2fn3r17Mwe5f/8+Uyc7Oztvb2+RSHTjxo309HSpVLpjx46WLVsywa8Sx09OTg4ODr527drr16/rc7FNz++//96xY0c9PT0l9sWtV1pkYnURvBpqbqhJnz4ExwvoExANHmf/JBcaDUil5PaL/CdpRWbNNHo5Ghrq8Aghfu1MVn7YcuW5N2nN5va2ZqKN5NyS60/zNLicvi6G5noaHA5Z/IHtg5RCpp1DieMPcjOe7GkxwNXISKe2n2mRifmqDTgyMjIePHjAvLxy5Ur1AceZM2d+//13uszj8Tp27GhlZSUUCmNiYl69ekUIiY+PX79+/dq1a/n8t/4T7ty5s27dOiZMcXBwsLGxKSgoePz4sUgkIoScPn26uLh47ty5VZ0a7/cGdP78+QMHDtBlLS2tLl26WFhYlJSUREdH0zbpyMjIrVu3Ll68uPK++vr6VX1i04BDW1vb2tpadn1ZWVlWVvk7y8zMTO4Blrb2WzE9xd7trlfAcffu3eLiYkJIr1696Jp79+5FRUXR5cWLF3t5edHl0aNHL168mDblBQYGylbr8OHDdMHd3f3bb7+lb5VRo0Z9//338fHxYrH45MmTCxcuVPr4hw4dCg0Nrc9lNlU5OTkHDx787LPPlNgXt15pD1IKay6kTiZ7WmhrcAkhR6PKfznN7W3dvmIWtOVnk9ZdLk+l1bF5swuz25rraRBCJnSzkA0I5vQu/xCMSi4c+MsjmvHM3kTr8tx2DqbaXA75so8NE3AocfzvB7XwtNev03U9SCkc09msTrs0LPqZznj8+HFqaqqNjY3Cwi9fvty7dy9dbt269cKFC83NzelLiUQSGBj4999/E0JoO8fgwYOZHbOzs3/++WcabVhaWi5cuNDZ2Zluys/P37Vr182bNwkhV65c6dChg+zbRxbe7w2lpKSE3ilCiKOj47Jly5gWKYlEcvDgwePHjxNCwsLC7t696+7uLrf7mDFjhg0bVs3xPTw8PDw8ZNfEx8cvWrSILn/77bcKH13JYe9216vH0PXr1wkh1tbWLi4udA392yWEdOjQgakTIcTQ0HDMmDF0+fnz50wzTmZm5n///UeXJ0yYwATm2tra48ePp8vh4eG0ZUyJ4zPMzMxGjhy5cePGVq1a1eeSm5jz58/HxChomq4Rbr3SYt+18SnD2psSQjLyy/65l0nX+LUzoQtPXhUx0QAh5EFK4b7IDLpsb6JlqV/+W6pHKwNn8/LeCT9eesnkV018XbKtIvuZh52erZGmcsdn5BSJTjzInvB3XNLrkhqvS7U3QiKRXL58mS4zf5lyIYisU6dO0aChWbNm3377LRNtEEK4XO7IkSOZr5kzZ87I7VhQUEAI0dLS+uGHH5hogxCir68/f/585gn9/v375R7WMPB+byjPnz+n3+WEkGnTpsk+/+JyuR9//DETcVbzx8A29m43t6oeADUSCAR37twhhPTr14/DKX+WnJiYSBfatWsnV7558+bMMvNXxfQ90dPTs7e3ly3fpk0belixWJycnKzc8Qkhnp6e69at271796RJk5ycnOpyiU0Zc8t27txZVlbzSAFZuPX1kfhaqOoq1EHH5s26tNAjhFyMySkTlz9ypl1ZCSF3X8r3kIhJe9NhyKRZeUDgaVfe9lBUKjnz6K3m7hMPsumDbB6X06OVgXLHJ4Rc+i/300NPW3x/e+yf/x2+m1mb+XdVeyOePHlCfxeam5t/+umndOXly5cVfiCXlJTQ7wBCyJAhQ4yMjCqXGTRoEF1ISUnJzMxkdrx06RJdHjZsmJWVldxePB5v0qRJdDkzM/P+/fuVj4z3ewOiwR9VubM/n8/v1q2bqampqalp9b0n2cPq7eZHR0d36tRJiWqFhYXRcLhnz57Myu+++46uNDCQH3KWm5tLF3R1dZs1K28vZfpLW1tbM9dGaWlpGRsb06dx6enptCGorscnhFTVSPie8/X1vXbtWmlp6YsXL/79999Ro0bVfl/c+vpIy6tbeKdakz0t6IiSg3cymZWT9sfRLpkvKjUk2BiWt1IUl0mSKr7R7UzLu0qk55cyUQuVIigVCEW044WjmbZyxyeEKDENnmpvRHBwMF3w8fFp3bq1ubl5ZmZmdna2wg/kxMRE5ldB5WZ2qkOHDr/88gtdZt4jz58/FwrL/5dkf5jKcnZ2trS0pO/HJ0+eVD4+3u8NyMzszVO80NDQ4cOHyxWYOnXq1KlTG7dSb2H1dvODgoKUCziCgoIIIW5ubrJdVGQb+uQwDUQeHh5Md2imcUnheDBdXV36V8iMs6jr8aEqNjY248ePp516Dh8+7OXlVdXD48pw6+sjt/hdmrBtSFsTQkhcRvGV2Fxm5c2qs2YNa1/+NOR2Un5RafmPdWawjMJs7kWlEiMdQgjR1+Yrd3zlqPBGFBUVhYSE0GVvb28ul+vj43P06FFCiMIP5JcvXzLLLVq0UHhMPp8v+1uTSkgoH//M4/FatmxZVX1cXFzoN0R8fHzlrXi/NyA7O7sWLVrQG/rXX39lZ2ePGDHCxMRE1fV6g9XbzQ8NDZ0xY4a+ft36WyUnJ8fFxRFCahzHRUVHR4eHhxNCOByObEzHtMDIxbzllat48CPbblan40M1/Pz8rl+/npCQUFZWtmvXrpUrVyq8C3Jw6+tJKHpnplAZ5GZMWx3OPq5V4pBZPa272ekTQqRSsu36K2a9Nr/8Y0iq6FGHWFK+Vrem8bpVHV85KrwRERER9A+7RYsWDg4OhBBvb28acCj8QGba4fl8vq6ubu1PlJdXHroZGRnJDV2RZWpqShcEAoHcJrzfGxaXy503b96yZcvoV/Lp06fPnTvn7u7u7e3t7u5e4xdxaGgoHZEkx9nZuV+/fvWvHtu3my8SicLDwwcOHFinatEuJDwer3v37jUWzsrK2rx5M10eM2aM7BMdqcJPoDqq5vhQDT6fP3v27MWLF0ul0gcPHly/ft3Hx6fGvXDr3x/ju5oTQiTSWk0+4u1gsHaoHV0+EpUVGP0mGUAt4lhCCKm+VDXHf+fQxHpE5mPdwcGB/vBV+IHMPBaRG8QoFApTUhTkQLOxsaG/LJkGg+pTijGHrdxvAO/3Bufo6Lhhw4bt27fTUaZisfjWrVu3bt3i8Xg9e/YcPnw4jUEVoglXKq8vKytrkICD7dvNJ4Rcvny5TgGHRCK5du0aIcTDw6PyEx05hYWFa9asoY95WrduPXbs2NqfqDbYPn7T5uzs7Ofnd/r0aULIH3/80blz5+qTfeHW1582n/tOzBOrzecOdDMihNx5kf/oVVH1hV3MdQ5OdjHQ5hFCnmYKvzymILlnfbBxfKbdpZGlpqY+fvyYLsv2q+jbty8dMFn7D+SkpKRvvvmm8vo1a9bQzn21/JpnfobKlcf7nSW2trbr1q2LjIwMDAxkAgixWHz9+vUbN24MGzZs4sSJ1bRIsaQRbjefEBIfH5+UlGRnZ1fLasXGxmZkZBBCavxBXFpaun79etrB1dzcfMmSJXL/ibVpw6/P8aFGH3/8cVhYWHZ2dn5+/v79+6tJ/kNw6xuCkQ6/uKxhJgRh1fiu5mbNNAghp6JrSKNkbaB5bIZrC2MtQkh2oWjC37HZhW91j6jlj9uqStV4fOXUPkVYw2Keebu4uMg+Jvf29qYBR+UPZKYFgmnqqCXm+Uv1OzJb5ZJK4f3OHi6X6+Xl5eXllZycHBERERwcTEfoSKXSU6dOZWZmLly4sHIPlfHjx/v6+lY+WoNMwtIIt7u80PXr15nBUTWiA7R0dXU7d+5cTTGxWLxly5aHDx8SQpo1a/b9999XzrnLZD1TOBiMGRSuMBtabY4PNdLV1Z05c+a6desIIVeuXOnTp081hXHr68/KQONV3jsQcIzqZEoIKS6T/H0ro5pihtq8EzNc21jp0sIzAuLvvJAfy1pS0VtC4acQj1u+VmEn0NocXzlWBjXPGdbgJBLJlStX6LKRkRGzTBkYGNBeF3IfyEwcIBKJCgsLmbEAVlZWX3/9NV3Ozc2l07LIHZDZKhaLeTweUYSZlkWugRPv90Zga2s7evToUaNGPXr0aO/evXTmrLCwsPDw8MpTT9Ap91iqSSPc7vKA4+rVq+PHj69NzFhaWkoj9D59+lQTVUml0t9++412J9HS0lq+fLnCPtLMO0cuyT/FPICs/FdYy+M3VbIfHFVlUmHWV/Upw/D09PTy8qL/mTt37mzbtq3CYrj1DcLeRDsqWflkoyLJm4YAPlfxzwjmK1y2cJ1YG2j2djIkhFyPF1QTHmnwOEemudKOnKVi6ex/np1+pKA5JK+k/OtEV1PBn6KORvnPuAKhfNapWh5fOfYmCr7b2Pbw4UMmzzR9cq+wmNwHsq2tLbMpKSmpTZs2dNnQ0JAZC5qWllY54GCaSUQiUXJyclXN2E+fPqULssmy8H5nA/OxzOFwZJsBOBxO+/btV61a9cUXX9D4LyQkROFcVyxpnNtd/gctEAiioqK6detWY7Xu3r1L/ziqH/R84MABmkePx+N9++23Vc1GyGQ+SUtLk0qlsjegpKSESYlfOV9NLY//ToiNjWWSA86cOVOuozLTjUv2rSjb8ikQCCqPaJVIJMyvlhqfxhFCZsyYERUVJRQKU1NTaataZbj1DaK15ZvuexO7WTAzjMw+8uzx210lFI4mzZCZz51OCStHm8811C7f8bWyjx6meFrQOOD4g+r6Zh6Y5NK/tREhRCyRLjqZsP+24r8cJp2Gpb6GBo8jm4qjuaEm82jjaZZ86s9aHl85sjei0dBn5DWS+0Bu1aqVpqYmTeMYHh7OBBw1cnR01NDQoDk8IiMjFQYcycnJTLotNzc3Zj3e72yYOHEi/Q6eMGHC6NGj5bbq6el17dqVXq/C7sDsaZzbzWXmgqvlO4G2ulhYWFRz4wMDA2lCeA6Hs3DhwmryfDDdcYuKiphcZlRsbCztwcTj8eTGl9f++O+EkpKSkArMO5/Kz89PSyufDVw2Y4ylpSUzlyCT4l5WXFwcMxK6Nr1zTE1NmSZcOp9TZbj1DaJj8zepipppcXu0MqD/urZ46/G5m5UunTSEECLbxnA7Kb+04gt7oJuChuWxXcy0K9oMHr9SsinFv4MpISSrsOyQTL4vOb+NcxrVyYwQIpWSlede/BJS5TjV8ITyoFlHg8sk0qCGtTeln0ViiZQpVtfjK0f2RjSOgoKCsLAwujxy5MhvFVH4gaypqdm/f3+6fP78eblPiWro6OgwgxcCAwMVziN66NAhumBgYCCb9QvvdzYw7QHR0dEKCzBDoBU+XWJP49xuLtMd+tatW8xv4qoIBILbt28TQvr161dVxpVr164xc8R98cUXVaW3o8zMzJiY+vDhw0xzk0gkYqZ+6d69u+x/fZ2O/05o1aoVEwAeP36c+b6XSCT79+9n+o3L5pTV1NT09vamyydPnqSZaBlpaWk7d+6ky8bGxrX8PTRo0CAmc35luPUNRXaOsaA4AdOhcm4fG2beeX0t3paRDsyPQNmkW+n5ZeEJ5ckVRnUy/brvWx/Q/VwMVw0p/0QTFL+ZTb5OOlSkM78Uk1tVsoq1Q+2YtpkNV5NlZzypLCwhLy6jPPxd1N+Wybdh2ow/t095r8k7Lwpe5LzJwVCn4yunrpO91V94eDhtbODxeCNGjPBUpKoPZH9/f/obQyQSrV69Wu47WyqV3rt3T+FJhw8fTncsKipavXo1nY+UEolE+/btYyY8Gzt2LNOWjvc7S5iB0NHR0cePH5ebVuLhw4fMUzYm9GwEjXa7+R4eHjweTywWi8XisLCwIUOGVHOUiIiIyklPZT148GD79u102cDAIDo6WmEcZ2BgMG3aNLo8ZsyYVatWEUIiIyOXLl3ap08fiUQSFBREc97JpRNR4vjqT09Pz9fX98KFC4SQO3fuzJs3z8PDg8/nR0VFMYn/evToIddQ8fHHH9+6dauwsLCsrGzNmjVt27Z1cXHR0tJKSUkJDw9nopbp06czbSHV43K5s2bN+vrrrxUOpcOtbygtjbXcLHVi0osJIbEZxZf+y/F1MyaEdLZtFv1t5/CE/DKx1MNOj5lPJDIx/9+Hb3VcWHX+5ZnP9XU0uHwu56fh9tO8LJ+kFQnLJPYmWh72+kzHjp+DU1IECrpfDO9gysxaIuf0o9fLziRN8ihPZx5QRfPG7F7Wi/uX9yooKBF3t9e/9oX8DAuEEIFQPGJP+dSAv91M2zzSgRDStaXe7UWdLjzJ4XE5Q9oa08uUSsmOG28aMJQ4fl25Weo0/tz0TBfRbt26VZXiqaoPZCsrqzlz5tC0B+np6fPnz+/atauTkxOfz8/Ly7t//z4ze4WWlpZsa6i1tfWsWbN+/vlnQkhiYuIXX3zRsWPH5s2bFxQU3L9/n4lpOnfu/OGHHzJ74f3Okv79+0dERNDocP/+/WfOnPH09KTT0yckJDDRhoaGhuyUv4zz58/fvXu3qoMvXbpUueEqjXa7+Xp6eh4eHrQPyKVLl6oPOGgrn4uLi2wnJlnx8fHM11VeXh4zX4AcCwsLplpdunQZP358QEAAISQmJkZu8tJPP/1UdnpDJY7/Tpg0aVJSUhK9dtlHqlTr1q1nz54tt4uFhcXKlSvXrVtHH38+fvyYGdxP8fn8mTNnVvUHpJCDg8PIkSNpo5kc3PoG5NvGOKZiqtIvjz3/97M2rS10CCHWBpojO5rKlnyaKZx6QD7b9PWngpmHnm4f04r2fnC11HF9uzuCSCLddj119YWXRBELfQ2LSvOsUlHJBYQQv7YmhJBnWcILMYqbPN1b6DGtL3paPNq9tLKswje/3rZdT+1s22yihwUhpLWFDr1exi8hrw7dfRPcKHH8uvJt09jDHF6+fMlkXKjmXVnNB3Lv3r25XO62bdtKS0ulUunt27fpr1JZ1tbWCxculOsJQUc57tixQyQSicXie/fuyTWHeHh4LFiwQPanLd7vLKFdH3799VeaQTwnJ4f+1JSlpaW1ePFihXNNvHr1SmGmUUrp7GqNdrv5hJBevXrRv++kpKSnT59WNc9eamoqfcPUMulp7Y0dO9bR0TEgIODZszf5fFq3bv3JJ5906NChYc+lnnR1dVevXn3x4sUzZ87I/j2ZmZkNHTp0yJAhCgcQOTs7b9u27ezZs5cvX2a6vhNCdHR0evXq5e/vX3luhRqNGTPm5s2bzNQ7FG59w/Jvb/pzUHnL9rMsYc8t0T982HJ0JzPZOCCnSHTsftayM0kKc04cupsZlVzw7cAWH7YxZh7EEEKEZZKbz/O2BKVerCJWqNFAVyMnc5rOvMHGg1BTD8ZHpxbO6W1jb/KmaeFppnBrcOrOmw3cP6NG/u1Nay7UoJjpXjU1NauagI2q5gO5Z8+ebm5uJ0+evHnzJjNpFtWiRYsBAwb4+voqbNH08fFxdXU9duxYWFgYMySEEOLq6jps2DAvLy/ZXpx4v7NKQ0Pjq6++GjRo0JkzZ+7cucN0tiOE6Onp9e7de8SIEdXMXdLgGvN2c2ofEx05ciQgIIDD4ezdu1fh/Mj19/r1a9qtyczMrCmNtK6T7Ozs169fSyQSIyMjCwuLWibMyczMpEPt9fX1ra2tG3ZOI9z6Btf+x3tMIweju71+KzNtHofzMrck9Hme3MSqVenRysDORIvP5aTnl4U9z8svkR9cWid/TXCe0M1CKiXdNt6/X4/hu9XwsNOnMc1/6cX3Kk1A3wjcLHUeftel8c/bgCQSSUZGRn5+vkgk0tbWNjc3l8vZVRWRSJSenp6fn0+fvCh8soP3e6MRiUSZmZl5eXkcDsfAwMDCwqLxp6NrzNtdh2RthYWFPXr0sLW1ZalOhBATExO1mjdPJUxNTZm5lGrP3NycvaAYt77BTfa0XPJvotzKiMT8iET5ySxqFPo8L/R5w9SKEKKvxYtMzE/IFrIUbRBCbiXl30qq82U2oMmelio8e4PgcrlWVlaVB5HWSOGksnLwfm80fD7f2tpaNuFs42vM212HFg4AaCgCodh22a13YlKVJkZHg5u8xoNJVQIAjUY10xcBvOcMtXlf+SjoFAZs+8rHBtEGgEog4ABQjUUf2Mr294SeN8gdAAAgAElEQVRGYKzLX/SB4n74AMA2BBwAqmGozVsx+B2eFeJdtGJwSzRvAKgKAg4AlZnb27qvM1tzP4Kcvs6Gc3ursncewHsOAQeAKm2SSWEO7OFwyKaRDqquBcB7DQEHgCp1sGm2c6yjqmvR9O0c69jBprFnawMAWQg4AFRshrfVvL4YscKieX1tZnjXOWUFADQs5OEAUAsT/46TnU8EGsrH7ub7J1U5DTIANBq0cACohf2TXEZ0aOwJPpq8ER1MEW0AqAkEHADq4uh014/dG2/SpibvY3fzo9NdVV0LACiHgANAjeyf5IL+HA1iXl8btG0AqBX04QBQO7+Hpc068gxvTeVwOGTnWEf0EgVQNwg4ANRRdGrhghMJQfECVVfkHdPX2XDTSAeMgAVQQwg4ANTXjhuvfjj/IqdIpOqKvAOMdfkrBrdELlEAtYWAA0CtCYTiDVeStwanYi77quhocL/ysVn0gS3mSQFQZwg4AN4BAqF4T2javsj0mPRiVddFjbhZ6kz2tPy0hxVCDQD1h4AD4F0S8izv1MPsi09y3ufIw81Sx7eNsX97016OBqquCwDUFgIOgHfSi5ySyMT8BymFsenFia+FaXllucUioUjSlN7QHA7R5nONdPhWBhr2JtqtLXU6Nm/maa/f0lhL1VUDgDpDwAEAAACsQ+IvAAAAYB0CDgAAAGAdAg4AAABgHQIOAAAAYB0CDgAAAGAdAg4AAABgHQIOAAAAYB0CDgAAAGAdAg4AAABgHQIOAAAAYB0CDgAAAGAdAg4AAABgHQIOAAAAYB0CDgAAAGAdAg4AAABgHQIOAAAAYB0CDgAAAGAdAg4AAABgHQIOAAAAYB0CDgAAAGAdAg4AAABgHQIOAAAAYB0CDgAAAGAdAg4AAABgHQIOAAAAYB0CDgAAAGAdAg4AAABgHQIOAAAAYB0CDgAAAGAdAg4AAABgHQIOAAAAYB3/2bNnqq4DAAAANHFo4QAAAADWcbQt2qu6DgAAANDEoYUDAAAAWIeAAwAAAFiHgAMAAABYh4ADAAAAWIeAAwAAAFiHgAMAAABYh4ADAAAAWIeAAwAAAFiHgAMAAABYh4ADAAAAWIeAAwAAAFiHgAMAAABYh4ADAAAAWIeAAwAAAFiHgAMAAABYh4ADAAAAWIeAAwAAAFiHgAMAAABYh4ADAAAAWIeAAwAAAFjX1AIOfb1mxenRzL/dW1fT9d/M+1R2fd9enqqtJ8PC3NTG2qKue+nqaJuZGjfOuQAAAOqPr+oKkMN7tzjY2dLl/PzCD/ynqLQ6jcHQQG/+nKkD+vZwa+2oo61FCBGJxM8TX4ZG3vt1z8FHMfFV7ejn6zN90piunduZmhhxOJzCouKY2KdnLgRv3fm3sKSkYc8lZ+yIwaP8ff+Lfb5i3ba6XzEAALzvVB9wtHZ2cHVuRZdzcvNUW5lG8IGP966fV8m1NPD5PBcnexcn+zHDB61ct/2XPQfl9tLW0vrt5x/GjhjM4XCYlc10dbp2bt+1c/uPR/tN+nxx9KPYBjmXLJ+eHh+P9vPt39PSwowQIhDkK3HJAAAAqg843iu9vbsd+nOzXjPdqgroNdNdv3Jh9uvcw8fPyq7/89d1I/w+qGqv1s4OgQd/6es3Kellav3PRQhp5+Y84SP/wR/0dnGyr/GiAAAAatTU+nCoMw0N/i+blstGAK/SMs5eun499JYgr4BZyefzli2aJbvjxI/8ZaONktLSm+F3L1wJycx6zay0trLYuHZJ/c/l27/nzQsBkdeOfvX5JEQbAADQUNDC0Xg+m/qRUys75uXV6+EfT/s6v6CQENLOzfnkwV9sm1vRTY4OLX16egTfvEVfTpswitmroLBo/PSvLweFEULMTI0DD/7i3rkd3eTbr6eLk33c08T6nMu9UzvmgAAAAA3lfW/hcHNxHDKwT58e3XR1tGtT3tW51cB+PXz792zr6lTXc/n278ksC0tKFi37iUYAhJBHMfG//31UtnDH9m50wcrSvFuXDsz6o4EXaLRBCMnKzlm6eguzSUODP9p/UH3OJUckEkdFx9ThCgEAAKqgvi0cX34+acn8mczLsVO+uhl+l3k5Ydywn1YtZl5+9c2ao4EX6nT8KeNHzp8zhXlqUFQsPH/p+rc/bH6Z8qpy4eY2lksXzhrYt0dzG0tmZUZm9rUbET9u+i3+WVJtztjKvgWzHPc0MSbumezW+w/f+mrX1yt/GtLLy53HexMXXrseIVvseujt9Iws2qOTENKujUt9zkUVC0tu342+ej382KmLzxNfFqdH1+bqAAAAqqG+AYeOtpaxkQHzUoP/VlW1td7aqqmpUaeDfzplnFwfTF0d7VH+vl06tf3Af0rqqwzZTQP79fjzlx9NTeTzXliYm340asgQX585C36oTbjz18GTzFf7s8SXclsNDfRlX2Zl59AFFycH2fUxsU/ldkx5lcEEHHYtbOpzLkLI0cDzv/15+HVObo2XAwAAUHvqG3CwqqoRHw52tqu++2rGF0uZNe6d2u3fvcFAX6+qQ+nrNduzfU2uII950lGVDdt+r2brEF8fZlkikVy/eZsuGxi8depX6VlyOxYVFTPLTC9R5c5FCKllaw0AAECdvKcBByHk8X9PI+884HI43T06MYlACCGDB/SWLbbtp2Wy0cZ/8c9Dwu6IxRJvz84d2ramK7U0Nbes+65zr+FlZSLlKtOlY9uhg/sxLyNuP2AegjTT1ZEtWVZWJrevSCxmluUK1/VcAAAALHlPA46Ao6enz33TjHH1333enp3psomxYeeObaIePCGEjBw2sEvHNkyxK8FhIyfMZaKKgD82My0ljg4tp08c/dufh5WojL5es51bVtI0oIQQkUi8bvMuZiuXW4eOvVwup/oC1Z8LAACAJe/pKJUD//wr+/LClRDZl7Y25UNGR/oNkF2/bvMu2TaMFT9uFYnetC74DeqrXGX2bF/DNJYQQnbsOXAluIanM0przHMBAAAw3tOAQ05OrkD2pb5eM7rQoZ0rs/JZwouwyCjZYvHPku49eMy8bF8xQqROdmxc7v9hf+ZlWGTUtys3KXEcdTsXAACALAQcCjDTlcjOyCo3dIV6mfxmDK2JsVFdT/Tj8q+nTxzNvIx7mjjxs0VyZaRSae0PWE3Z2pwLAACAJQg4qqOr+yYb2Ou3W0EoQf5bacItzE1rf/Al82fOmz2ZefkqLWP89K8rhzVFxULZlzw+T64AV2Y6t2KhkChSy3MBAACwBAFHdYTCUmZZ4SxoxoZvcoGIxZIcRUGJQnNnTvh+8Wxm6tfsnNyJny1+/J98jg1CSL5MTEMIMa3UjqIjkyO1UGaIrBLnAgAAYAnro1Q+GjVk7qefMC93/fXP/sOnZAsY6L0ZdCqs4ge6qrzOyTWsSIOhsPWCybhFCMkVCGo5LHbK+JE/Lv+aGX4iyCuY8vmS0Ih7Cgu/ePlW5lNXZ4dnCS9k18hW7FVaZn3OBQAAwBLWWzi0tDTdO7d786/TWxOD2bdsLvt9mZ3zpoWgpLRUtqSxsSHbVa3sUUw8s9ymtVM7N2fZrc1tLN07t2VePo6pVZvBaP9BW9Z/q6FRHuoVFhXPmPtdNUNFQiPvyr709uwi+9LFyb6lrTXzUi4PaV3PBQAAwBLWA45bd6Jluz0OHdTXvmVzuqyhwf9xxQK+TKeEe/ffDPqQzbdNCOnXuzuzrK2lNbyKVKEN6/yl68wyj8ddPG+G7NZFX87Q0tRkXl4KCq3xgB8O6LNzy0ptrfI0GMXCks/nrThzMbiaXeKfJckm5vp49BAmfzkhZNmiWcyzEqlUelamwkqcCwAAgCWsP1KJiXv2KCaeGTJqY20RfuVI8M3IgoKiLp3atmntyJQUicT7Dp1kXobfui+VSplv08kfjzA3M3kcE29kaDCgr7fs3Ovs2XvwxLzZbyZ4GzN8sK2NVVBIpEgk7tG9S/8+XkzJV2kZu/f+U/3Renq5/75jrWxfkIzM7CmfjJjyyQiF5Zes2EibWP45fm7lt1/QldZWFldO/XXs1IVcQX6fnh59e3ky5aOiY5j57ZQ+FwAAABsaI9PoTz//vvfXdUxLhpGh/vAhCton/th/TDbRxbOEF3eiHnXr0r68onzesMH9hsnk5G4cC5etP/r3NqYlw8ujs5dHZ7kyYrFkycpNzPzvVfEb1Fd2wjlCiF0LG9nmCjlGFYU3/7J32If9mZynts2t5s2eIle4pLT0ux/eJNVQ+lwAAABsaIxRKsdOXVi6ekuxsKSqAlKp9K+DJ+YtWSu3/vs1PxcUFinc5dbdRpoz/XJQ2JwFP8iNTZVVVib6ZsWGIyfPs1eHsjLRpM8WP3wSV1WBwqLiLxatvh56u6oCAAAAqtVIw2K3/fb3oJHTT527KhdAiETiW3ejJ332zayvV1be63ro7RGfzLl976FsL5BcQf7W3/7+ePrXbNeZcfDI6Q/8p5y5GCxX+WJhydXr4YNHz/hlz0G26/As4cUA/ymbd+x9lfZW8oxiYcnFqzd9R0yXG/sDAACgVjjaFu0b83waGvye3d1btrDR0tTIep0bcft+bdJPubk4unduq6Otnfoq/er1CGFJlY0lrNLV0e7l3dXa0oLL5aRnZIXeisrNzWv8anh7dm5l30JbSystI+tmxF2V1AEAAKBOGjvgAAAAgPcQMo0CAAAA6xBwAAAAAOsQcAAAAADrEHAAAAAA6xBwAAAAAOsQcAAAAADrEHAAAAAA6xBwAAAAAOsQcAAAAADrEHAAAAAA6xBwAAAAAOsQcAAAAADrEHAAAAAA6xBwAAAAAOsQcAAAAADrEHAAAAAA6xBwAAAAAOs4paWlqq5Dvbi4uBBC4uLiVF0RAAAAqBJaOAAAAIB1CDgAAACAdQg4AAAAgHUIOAAAAIB1CDgAAACAdQg4AAAAgHUIOAAAAIB1CDgAAACAdQg4AAAAgHUIOAAAAIB1CDgAAACAdQg4AAAAgHUIOAAAAIB1CDgAAACAdQg4AAAAgHUIOAAAAIB1CDgAAACAdQg4AAAAgHUIOAAAAIB1CDgAAACAdQg4AAAAgHUIOAAAAIB1CDgAAACAdQg4AAAAgHWc0tJSVdcBAAAAmji0cAAAAADrEHAAAAAA6xBwAAAAAOsQcAAAAADrEHAAAAAA6xBwAAAAAOsQcAAAAADrEHAAAAAA6/iqrgArhEJhbm4un883Njbm8Xiqrg4AAMD77l0KOBISEq5duxYSEvLXX39VVebu3bv79++/evVqSUkJIcTKymr48OETJ040NzdvvIoCAADA296B1OaZmZnXr1//999/IyIiCCFWVlY3btyoXEwqlf7xxx8//fRT5U1WVla7du1yc3Njva4AAACgiPoGHAUFBWFhYefPnz979qzs+qoCjrNnz86fP7+qo9nY2Bw/ftzU1LThKwoAAAA1Ud9Oo5s3b547d65ctFGV/Pz8devWMS9/+umn6Ojo8PDwyZMn0zWpqal//PEHKxUFAACAmqhvwCGVSpnlGp+G3LhxIyMjgy5PnDhx+PDh2trapqamS5Ys6datG11/+PBhgUDAUm0BAACgGuobcBBCvLy8li9ffu7cucDAwOpL3r9/n1n+8MMPmWUejzdkyBC6XFBQEBMTw0Y9AQAAoHrqO0plwYIFenp6tSzMNG8QQqysrGQ3tWjRgllOSkrq3r17g1QPAAAAak99WzhqH20QQmSTbch1g9XU1GSW8/Ly6l8xAAAAqCv1DTjqxMbGhlmOj4+X3STbF4Qm5wAAAIBG1kQCjk6dOjHL+/fvFwqFdFkoFAYEBDCbNDQ0GrtmAAAAoM59OOqkR48eLVq0ePnyJSEkMjJy+vTpQ4YMKSsrO336dHR0NFOsTo9pAAAAoKE0kYBDR0fn+++/nzlzJn15+/bt27dvVy5mZGTUuPUCAAAAQprMIxVCiI+Pz/bt2y0sLGRXent7z5o1i3np4ODQ6PUCAACAptLCQfn6+np7e9+7dy8lJYXL5To7O3fq1GnNmjV0q6GhoaOjo2prCAAAVUk+e7bk9WuTTp2M27dXdV2g4TWpgIMQoq+v36dPH+ZlcnLyqVOn6PJHH32kpaWlonoBAEANHm3Zkn7jRrcNGxBwNElNLeCQlZGR8c033xQUFBBCNDQ0Ro4cqeoaqYBEIsnJyREKhQYGBnp6ehwOh71zSaXSnJyc4uJiHR0dY2NjVs8FAADvlqYWcAgEgoKCgrS0tNu3bx84cIDJQLpgwYL3rQNHXFzc0aNHL168mJaWRte0bNly+PDhI0aMaN68efX7pqSkfP7554SQL7/8csCAATWeKyMj4+jRo4GBgUlJSXSNnZ2dv7//6NGj5RK/EkIKCws/+ugjQsiMGTP8/f0VHjA6Onrp0qWEkFWrVnXu3Jmu3LZt2+XLl6uviZub208//VRjhRnVXGlUVNTy5ctrf6gjR47o6OjI1tPOzm779u01Bl4XL17csWMHXd63b5+JiUntTwoADUtSVkY4HC6/bl+Oyu2lbmdnm7rXr66+/PLL8PBwuZUfffTRxIkTVVIfVTl06NCaNWvKyspkV7548WLbtm379u1buXIlM8WMQpcvX46NjSWEHD16tMaA48aNG4sXL379+rXsyqSkJHqu9evX9+/fX3aTRCKhBy8qKqrqmGVlZbSMbN7YvLw8urIacr2Ga1TNlZaWltZ4OllMijmmnrGxsU+ePGnbtm31OwYEBDAnkkgktT8jgMplhIU93rKl8nqupqaWsbF+q1am7u4WPXpU/12Y9+xZ/J9/vjxzRhATQwi5t3x56rVrjp98YjdyZH2+RCUiUfqNG88PHbIfM6b5wIHVF04PDX22f3/yhQvFqakcLlfXxsb2ww8dJ00y9/Bo8L3U7eyNpqkFHHJ0dHTmzJkzffp02dznTd6FCxdWrFhBCOnVq9enn37aunVrIyOjwsLCJ0+e7Nq1KyQkZP78+YaGhj179lS4u1gsPnLkCF0ODg5OTEy0t7ev6lyhoaGzZs0qKyuztbWdM2dO165dDQ0NBQLB/fv3f/3114SEhFmzZu3atatv374NdXVWVla7du2qaqu2tnbtD1X9lbZp04bpAMT47LPP0tLS/P39p02bJrdJYQ+hM2fOVB9w/Pfff5VDZIB3hTAz80Wlt4kcPXv7bhs3thw2TOHWZ/v3h82aJZH5aSEuLk45fz7l/Hnr/v19Dh3SrHs6A0FsbOKxY/F//FGYnEwIsR08uJrCUonk7tKljzdtkl1TmJwcu3t37O7dHZYu7bR8eeV2SuX2UrezN7ImG3B4enr6+PgMGjSoxscHTYxYLN6yZQshxNvbe+fOncxUMnp6eh4eHh06dJgzZ05ISMj69etPnjypMPVqVFTU06dPdXR0OnbsGBERcfny5U8//VThuQQCwbfffltWVtauXbtdu3aZm5vT9UZGRnZ2dr17954zZ86dO3eWLl16+vRpU1PTBrlADQ0NNze3BjlU9Veqr69f+UT0f8zU1LSWdThy5MisWbMMDAyqKnD27Fml6g6gXvQdHc26dmVeSsrKilJSsu7ckYrFBYmJQaNHd/3f/9rOny+3V8qlSzenT6fLlr17W/Xpo21uLvjvv/g//xQLha+uXg2ZMqXfyZO1/O4sef365ZkzT//6K/3mzdrXPGbHDvrNrWFg0HbePJNOnYhUmnn79pOtW8XFxdFr1zazsXGp9Bmo3F7qdvZG9s4EHHFxcbUp9uOPP2pqahoaGsrO2fZeefnyZUJCAiFkxIgRlf8TtLW1Z8yYERISEhcXFx0d7e7uXvkI586dI4QMHz68e/fuERERR44cmTJlisLQJDAwkHYQWbNmDRNtMIyNjVetWuXv75+VlXXy5MkZM2Y0yAU2oNpfqRIGDhwYEhKSn58fFBRUVVeV/Px82sTi5+d35syZBjkvgErYDh7ssXmz3EphZuajzZvpV+Odb76x7NnTrFs3ZqtUIrmzeDFd9tiyxXXWLA63PDWU6+efXxw4sDgtLfncudRLl5r7+tZYgYzw8IsDBjAtJRweT9fGpvDly+r3Kk5Pj1qxghCiZWIy+MYNQxcXur7F0KEOY8ac69NHVFBwd9kyu1GjtGQ6Vym3l7qdvfE1ncRfVPPmzc3Nzd/baIMQUlxcTBdoB8bKHB0dvby8vLy88vPzK28VCASBgYGEEF9f3x49eujp6SUlJd25c0fhoegXtp+fX5s2bRQWcHJyGjp0KC0pO4ueOqjTlSrBxMRkzJgxhJAjR45Ude3BwcE5OTl6enoffvhhQ50XQH1om5t3XbeOadiIqegcTeXGxOQ+eUIIserTx3X2bCbaIIQYurp227iRLidUPPesXplAQKMNcy8vr507xyYltfnyyxr3ennmjKiwkBDSacUK5pubMm7fvuPSpYSQ0pyclIsX67+Xup298TW1gAOYUSGXL19W+D1nYWGxb9++ffv2+fj4VN4aHBxcUFBgY2PTtWtXAwMD+tNcYbP/ixcvoqKiCCFyfULl0LQojx49YgawqInaX6lyhELhsGHDCCG3b99+/PixwjJHjx4lhIwaNUpfX7+hzgugbtp89RVdeHH6tFSmW3RBQgJdsOzVq/JDkxZ+flwNDUJIWnBwbc6iYWjYacWK4dHRH16/7jJ9unbt+o8nnztHFxR2MWk5fDhdSLlwof57qdvZGx8CjqbG2Nj4k08+IYScOnXqxx9/zMnJqdPuJ0+eJISMGjWKthL5+vrSQ2VnZ8uVTE1NpQutWrWq5oDMaGRmdK6aqP2VKkcoFLZv354+tFIYxzx58iQiIoIQMmzYMLnxRABNia6NjW7z5oQQUUFBaW4us14qFtMFDUWdnPi6uoZuboSQwpcvmZLVsPDy6rh0qaGra53qlhkZSQjRs7fXVdTbz8DRkT6VyHp7ci7l9lK3szc+BBxN0Lx587p160YI2bdv36BBgzZu3Hjnzp2SkpIad3z69GlYWBiRabRwd3e3tbUtKSm5du2aXGEmlKl+Sjymv2RdQ5+qlJSUhFeh9o0odbpS5QiFQg6HM27cOELIkSNH8vLy5ArQKKRr167t2rWTHf0L0PQwj0ukIhGzUsfami6kh4Qo3Kv3/v1DwsOHhIcTdgZclOTkCDMyCCGGVfcBpxFM3tOn4oqPUOX2UrezqwQCjibI0NBwz549c+bM0dLSysnJ2b179/jx4/v06bN27dqoqKhq+lJcvHiRENKhQwdmCAaTofXEiRNyOzJdQKoficpsVdhlRAkZGRmTq3D16tVaHqROV6ocoVBICOnXr5+hoSHtOiq7lekuOm7cOA6HgxYOaMKEGRm086aGgYGWzGg1k44d6YOPl6dPPz90qPKORm5uZu7uZu7ust07GpCooIAuaFX9q0nT0FCusHJ7qdvZVQIBR9Okq6v71VdfXbp0acmSJfQ79fXr1/v27Rs3btycOXNSUlIq71JaWnr8+HFCyIgRI2Sfp9I2gLt378bExMiWr2WKKuZQDdVpVEdHZ0AVLC0ta3OEul6pcmjvXQMDg7Fjx5JKXUeDgoIEAoGhoWG/fv0IIQg4oAl7VJEuwn70aI5MSiSellbnlSvpcsjkyWGffSao3WjEhiKq6GLPrXqaLb6ubnnhikSFyu2lbmdXiXdmWCwowdraetq0aVOnTn369GloaOixY8fi4uKuXLkSHR39559/urzdvTkyMjI5OZkQIteZ1NXVtVOnTvfv379w4YLsaBQ9PT26UP3DGvpDX7Z8PZmZmf3yyy/1OUJdr1Q5zHAhPz+/PXv20K6j7dq1I4RIpVLaXXTcuHG0uygeqUCTVJKT82jDBpqKlKej027hQrkCztOm5cbExGzfTgiJ37s3fu9e6379Wo0f38LPrxGGdNama8ibwhU/sZTbS93OrhIIOJo+Dofj7Ozs7Oz8ySefnD9/fuXKlRkZGYsWLTp27JhszonTp08TQlxcXBISEhIqeo9TTk5O9+/fP3bs2KxZs5jRtsyUH3l5eZUnTGEwT1IMK1r5VK6uV6ocJtJyc3Pz9vYOCws7e/YsDTiePHkSGRlJCPHz86NlxHX5EAFQQ6+uXYuQGYYqFYkKU1LSgoPFxcWEEJ629genThk4OcntxeFyu23caOHldWfxYpoV9NW1a6+uXePp6LjNmdNuwQKtBkoYCOoAAcd7RENDY9iwYVKpdNGiRTExMXfu3PHy8qKbMjMzaR/GuLi4ykm7qaysrLCwMKaXJfP8IiEhQa6xRNaLFy/oAjPLCZfpPlb1QxZmE7ehn90qcaXKkb26sWPHhoWFHTly5PPPPzc0NKQ5vnr06OFa0aNe3ZKUANRV7pMnNKlGZc0HD+6yerVJhw4Kt3I4HPvRo1v4+b04depZQEDK+fOEEHFx8aONG58fOtTvxAnTiukb4V2HgKOp2bRpU0pKiqur68yZMxUW8Pb2pgsvX75kAo6rV6+WlZXp6OhUNcFKXFxcUlLSqVOnmK/hVq1atW7dOjY2NiQkxLfqPIB0ohA7OztHR0e6RkdHR0NDo6ysrPLADQazqaEexDCUuNL68/HxMTMzy8rKCgoK6tev37FjxwghtG8HQNOgY2Nj9PaQ1LTgYKlEomVi0ufAAY2aMs3wtLUdxo1zGDeuMCXl+cGDDzdsKBMIilJSLg4YMOzuXT07OzbqXKfZRpjeJ8rtpW5nVwkEHE2NQCA4c+bMw4cPq5qyrnJnT6lUSr8C/f39V61apfCwZ8+enT9//oULF1JSUuj0NBwOZ+jQobGxsadOnZoxY4bCCd5evXpFs3n6+fkxleFyuV27dg0PD4+MjKRTw1f24MEDQoiWllbLli1rd921otyV1p+uru64ceN++eUX2nVDIBCYmZnRlGgATYP9yJFyqc1vff11zI4dJa9fx/72W7tFi2p5nGbNm7dfvNhp4sTrEyem37hRlpcXtXx5r337WKgy4VU8NpVU3RFNUjGOl1cx4E65vdTt7Ehjwt4AACAASURBVCqBUSpNzcCBAwkhSUlJ//zzj8ICTJ4JZ2dnuvDo0aPo6GhSkfxKoZ49e9I+DZcvX2ZWjhkzhuauWLlyZUGl8VdCoXDdunX5+fnGxsbjx4+X3TRo0CBCSGho6I0bNyqfKykpKSAggBAyatSoZs2aVX+9daL0ldbfkCFDCCG3b9/euHEjIeSjjz7SrehJDtAktVu4kH47Pvjxx+JXr+q0r461tU9AgIahISEk8dixsqpbQ+uDaXcpFQiqKsNkKmOGfii3l7qdXSUQcDQ13t7eNKP2ypUrN23alJiYSPsHSKXSjIyMPXv2rFmzhhDSp0+fDhWPVC9cuEAIsbKy6iYzr5IcQ0NDmvz72LFjTA9HY2PjZcuWEULCwsKmTp168+bNoqIiQkhxcTFtvaBH/u677+SmdvP396eDdefNm3f06FHmAYpQKAwODp4xY4ZAILCyslI4S61YLM6oWmZmZjX/OUpfaf05OTnREbAZGRmkIv4AaMJ0bWzaL15MCBEVFkb/9JPc1rynT29Om3Zz2rSnf/+tcHdtC4uWfn6ETjxbkde4YWkaGdGYJi8+vqoydKRusxYtmC9v5fZSt7OrBB6pNDVcLnfNmjW6urqHDx/etWvXrl27LCwsLCwsUlJSmFyf7u7ua9eupc84ioqK6FMGhbPLyho0aNDhw4fj4uKioqK6VsxD3a9fv507dy5atOjBgwe0D6a+vr5sjq///e9/ledK1dXV3bZt21dfffXkyZOlS5cuXbrUyclJQ0MjMTGRjia1tbXdunWrwicaqampVXW/IIRYWVkpbDWp/5XW3+jRo2nzUr9+/ZgeLQBNmOvs2TE7dpRkZ8fu3Nl65kwjmeSYUrH42YEDhBBxSYnTpEkKd+dXdOFiKWMmh8s19/RMvXQpLz5emJWlbWYmV6AoJYW2zZh26VLPvdTt7CqBFo4mSFtbe9WqVQEBATTNQ0ZGxqNHj2i00aFDhzVr1uzdu5cZMxISEkI3ffDBB9UftmvXrra2tqRiklhG//79jx8/PmHCBNrBUy6j6MOHD4sUJZ+xs7M7cODAsmXLnJycCCFPnz6NiYkpLi62s7OjzR7t27dX+n9AofpfaT317NmTjh+ms8gCNHlaxsadvv+eECKVSKKWL5fdpO/gQB+4pFy6pPCJiVQiyQgNpcs6VQ+8r6fmAwbQhdRLlypvTb1yhS7YVBSrz17qdvbGx0HGoaZNKBRmZ2cLBAI+n29mZmbCZi6dkpKS1NTU4uJiQ0NDbW3tTZs20RaFbt26rV+/vkWLFlXtmJ6enpubKxaLTUxMzM3NFfZ1BQA19OLUqaAxYwghbnPnynUapURFRac6dixISiKE+F6+bCXTVzps1qz4P/4ghLjOmuWxZYtc/vIn27ffXrCAEGLevfuHVTRbVu/J1q23Fy0ihPgcPmw3cqTCMgWJiSfc3KRisb6j45DQUNlsYyXZ2We8vAoSE7kaGiNjY5vZ2tZnL6lUmnD4MCFEy8SkeUUfskY7u5rgff/996qugzyxWCwSiWr5rSMWi6VSaW2yNdS+ZFPC5/MNDAzMzc1NTU3rmcmqNucyNjY2Nzc3MDDQ1dXt27evkZHRjRs3UlNTL1y40L17d7meHAw9PT0zMzNzc3M9Pb337QYBvNMEsbGJR48SQsw9PJor6ovN1dDQNjd/ERhICBH895/zlClMYGHo5vb0r78kZWVZd+5khIfzmzWTikSFL19mhIffWrAg9rffaLEeu3frVzsldVUyIyNTL18mhNiPHm1UxVRnmkZGZQUFmeHhpTk5KZcu6dnbaxoaiouL02/evDltmiA2lhDSbuFCu4o535XfSyI53bXri8DAwpQU5hFS451dPahRC0dycvKxY8eCgoLoTBYWFhbdu3cfPHhw3759K38JPX/+/Pjx40FBQU+fPtXQ0GjdunW/fv3Gjh3LPClgCIXCEydOnD59mg5P8PT0HDdunLu7+4oVK2iBMWPGyKW4hgYUERGxePHigQMHLlmyhM9HnyGAJqXGFg5CiEQkOuvl9frBA0JI7wMHHGQy0KReuRI0ZoyosFDhjhwu13PbttZVpBSqUW1aOAghoqKi4HHjUi5eVLi1+eDBff/5p/L40rruJRWL/9bRIYRY9enjKzMCrnHOribUJeC4efPmV199pXBC0Q8//HDt2rWywyP/+eefVatWVZ7vytjY+Ndff3V3d2fWCASCL7/8kuaekjVgwABm0OO6detGjRrVMJcBimRmZpqamqLpAqDpqU3AQQhJPn/+qr8/IUTPzs4/Opov09pakJj4aOPGZwEBslObcjU1W/r7t1uwoD49H2sZcBBCJKWlsbt3P9m6lT76ofTs7dt8+WXrmTO5VfQxr9NeoqKig0ZGhBD70aP7BAQ08tnVhFoEHMnJycOGDWMSOfTq1UtXV/fWrVvMqIoJEyYsr+hwdO7cuXnz5lV1KBMTkxMnTtjY2NCXS5YsOXHiRPVnR8ABAKBa4pKSnIcPz3p7E0J8/vmnua9v4w/plEok+QkJJZmZhBAtc3N9BwdOLX4m1XKv3CdPTnXqRAjptGJFx6VLG/nsakItmrjPnTvHRBu7d++mDzjS09PHjx//8uVLQsiBAwc+//xzCwuL3NzcH374gdnxu+++8/HxKS0tPXPmzG+//UYIef369d69e5cuXUoIuX//vmy0sXTp0n79+kkkkps3b/7000/MZJ4AAKBaPC0tZmo3fQcHlSSQ4HC5Bo6OpI5D1mu5V2pFm3rLSmkCGuHsakItAg4aVVCdK+bpsbS0nDNnzsOHD+nLwsJCQsilS5eYZo/Zs2dPmTKFLs+fP//Zs2f0KcmRI0fmz5+vq6srmylyzpw5kydPpst2dnZFRUUbNmxg9aIAAAAIIWV5eY9//pkQ4jB2rHG7dqqujsqoRcDBzDtKCFm7du20adOcnZ15PN7IkSNHvv3gLSIigllmpvYmhHA4nJ49e9IIo7i4+NmzZ+3bt6czgFNyuadYHR0KAAB1xdfTGxIeTgjRrzSL/bsu5/HjUoGgma2t+//+p+q6qJJaBBx+fn5//vknfaoSGBgYGBhoYWHxwQcfeHp69ujRw8DAgCn5+PFjZnn9+vWyQ2fT09OZ5ZycHKlUSke7EEJ0dHQadg4wAABoWFw+30ymy39TYuHl5X/vnkQkatZA80G+o9Qi4LC3t9+7d++PP/4YFRVF12RkZAQEBAQEBJiZmc2YMWPChAk0F3WqTEb9qjJYE0KKi4uFQiEzjKVly5YYIgEAAKqip2g+7feNWgQchJCOHTsGBATcuHEjODj4woULTEeNrKys9evXJyYm0snEdXV1SyqS6rer+kmYjo6O7GQZ1U/oBQAAAGxTl4CDEMLj8fr27du3b9+lS5fGx8cHBQXt3LmTtlIcPnx4xowZLVu2dHR0vHPnDi2/bds222rztjo5OT19+pQQ8vr166ysLLNKk9wAAABA41D9g4aMjIzlFc6ePUsI0dTUbNu27dy5c+fMmcMUow9TvL29mTWBgYFyh8rPz3/27Bnz0tPTk1mms3QyStiZexAAAAAUUn3AYWBgcOXKlcOHDx8+fHjPnj0CgYDZVCiT75ZmGh0yZAizZtu2bXv37s3LyyOEiMXie/fuzZ49e+bMmcnJybRA//79mcI///xzZGSkVCoVi8URERG/VWTpBwAAgEagFplG9+/fv3r1arpsa2vr5+enr68fGxv777//0pVubm7Hjh3T0NAghOzatWvTpk2yu7do0SInJ4dJHdatW7f9+/dzuVyxWPzpp5/evHmTKamvry8SieRSfiHTKAAAANvUYrbYdu3aZWdnP3r0iBCSl5d3586dsLCw2NhYutXKymrr1q1Mro7OnTsLhUJmPAvdhQmbbG1tV69ebW1tTQjhcrmdO3cOCgqirSCEkNLSUpFIRI/JBCgffPBBmzZtGuM6AQAA3ldqEXBwudw+ffo4ODikpaXJptMwNjaeMGHC2rVr7WUGFHG53B49enTp0iUvLy8xMZFZb2VlNXny5NWrV7eSmcjY0NBwwIABBQUF8fHxEomEHnPBggUeHh7Xr1+nZXx9fV1dXVm+RAAAgPeaWjxSkZWZmfn69WuxWKynp2djY1P9hOYCgSArK6ukpMTIyMjMzEyz6vnxBAJBWloal8tt0aKFtrb25s2bmW4cO3fulO3tAQAAAA1O7QKOBvfHH38MGTLEysqKWZORkTF8+PCsrCz68vLly3Z2diqqHQAAwHtBjfJwsOHixYv/+9///vjjj6lTp3bu3JnH4z1//nz37t1MtNG/f39EGwAAAGxryi0cIpFo1KhRzIwqldnY2Pz111/2yDgLAADAMtXn4WAPn8/fvn17v379FG7t1avXvn37EG0AAAA0gqbcwkFJpdJHjx7dvn07Li5OIBDo6+s7OTl169atU6dOHA5H1bUDAAB4LzT9gAMAAABUrik/UgEAAAA18c4HHC4uLi4uLqquBQAAAFTnnQ84AAAAQP0h4AAAAADWIeAAAAAA1iHgAAAAANYh4AAAAADWIeAAAAAA1iHgAAAAANYh4AAAAADWIeAAAAAA1iHgAAAAANYh4AAAAADWIeAAAAAA1iHgAAAAANYh4AAAAADWIeAAAAAA1iHgAAAAANYh4AAAAADWIeAAAAAA1iHgAAAAANYh4AAAAADWIeAAAAAA1iHgAAAAANYh4AAAAADWIeAAAAAA1iHgAAAAANb9n707j4uq3P8A/h1gWMaBAQREQAFBBPcSTdxQ3AvFnX5Z3VLrSl5TM70mbtfUtFxy6Rp1s7yaC+LCdUNNJVGQxHBBEETZHERAcNiGYbbfHydO0zDgMHBgos/7df84nvMs53jv9Xzneb7PcxBwAAAAAOcQcAAAAADnEHAAAAAA5xBwAAAAAOcQcAAAAADnEHAAAAAA5xBwAAAAAOcQcAAAAADnEHAAAAAA5xBwAAAAAOcQcAAAAADnEHAAAAAA5xBwAAAAAOcQcAAAAADnEHAAAAAA5xBwAAAAAOcQcAAAAADnEHAAAAAA5xBwAAAAAOcQcAAAAADnEHAAAAAA5xBwAAAAAOcQcAAAAADnEHAAAAAA5xBwAAAAAOcQcAAAAADnEHAAAAAA5xBwAAAAAOcQcAAAAADnEHAAAAAA5xBwAAAAAOcQcAAAAADnEHAAAAAA5xBwAAAAAOcQcAAAAADnEHAAAAAA5xBwAAAAAOcQcAAAAADnEHAAAAAA5xBwAAAAAOcQcAAAAADnEHAAAAAA5xBwAAAAAOcQcAAAAADnEHAAAAAA5xBwAAAAAOfMWvsGAAAAiIgenz4tKymx79vXrlev1r4XaH4Y4QAAAKOQsm3b1dmzn1y61No3ApzACEcbp1KpSktLq6urbWxshEIhj8fjri+1Wl1aWiqVSq2srOzs7DjtCwAA/lwQcLRZGRkZR44cOXfuXEFBAXOmc+fOkyZNmjx5squra8N1xWLx3LlziejDDz8cPXr0C/sqLCw8cuTIiRMncnJymDPu7u4hISHTpk1zdnbWKlxZWfn6668T0Zw5c0JCQnQ2eOfOnfDwcCJau3btSy+9xJzcsWPHhQsXGr4TPz+/zz///IU3zGrgSZOTk1etWqV/U5GRkVZWVpr36e7uvnPnzhcGXufOndu1axdzvHfvXnt7e/07BYDmpZLLicczMWvcy9GwWsbWO9eM/f7AMAcPHly3bp1cLtc8mZubu2PHjr17965Zs+a1115roPqFCxfS09OJ6MiRIy8MOK5cubJ06dKSkhLNkzk5OUxfGzduHDlypOYllUrFNF5VVVVfm3K5nClTU1PDniwrK2NONsDJyanhAloaeNKampoXdqdJrVZr3Wd6enpqamqPHj0arnjgwAG2I5VKpX+PAK2uMD7+3rZtdc+bmJtb2NlZd+nSvl8/p8GDG34Xlj18+GDPnrxTpyRpaUT066pV+Zcuec2c6T5lSlNeoiqF4umVK48OHvSYPt11zJiGCz+9du3hvn2PY2Kk+fk8ExOBi4vbq696vf2244ABzV7L2HpvMQg42qCYmJjVq1cT0dChQ997771u3brZ2tpWVlampqZGRETExcUtWrRIJBINGTJEZ3WlUhkZGckcx8bGZmdne3h41NfXtWvXwsLC5HK5m5vbvHnz/P39RSKRRCK5devWv//976ysrLCwsIiIiBEjRjTX0zk7O0dERNR31dLSUv+mGn7S7t27R0dHa1X5+9//XlBQEBISMmvWLK1LFhYWdbs4depUwwHH/fv3ExIS9L9nAKNSXVSUW+f/JlqEHh79N2/uPHGizqsP9+2LDwtTafy0UEql4rNnxWfPdhw5cvjBg+a2to29K0l6enZU1IPvvqt8/JiI3MaPb6CwWqW6GR5+b8sWzTOVjx+nf/NN+jff9A4P77tqVd1xSsNqGVvvLQwBR1ujVCq3bdtGRIMGDdq9e7e5uTlzXigUDhgwoHfv3vPmzYuLi9u4cePx48f5fH7dFpKTkzMzM62srPr06XP9+vULFy689957OvuSSCSffPKJXC7v2bNnRESEo6Mjc97W1tbd3X3YsGHz5s1LSkoKDw8/efJk+/btm+UB+Xy+n59fszTV8JNaW1vX7Yj5G2vfvr2e9xAZGRkWFmZjY1NfgdOnTxt07wDGxdrLy8Hfn/2jSi6vEouLk5LUSmVFdvbladP8N23qsWiRVi3x+fNXZ89mjjsMG+YcGGjp6Ci5f//Bnj3K6uonFy/GvfNO0PHjer47ZSUleadOZf7ww9OrV/W/87Rdu5g3N9/GpsfChfZ9+5JaXXTjRur27Uqp9M769e1cXHzq/BtoWC1j672FIeBoa/Ly8rKysoho8uTJbLTBsrS0nDNnTlxcXEZGxp07d/r161e3hTNnzhDRpEmTBg4ceP369cjIyHfeeUdnaHLixAkmQWTdunVstMGys7Nbu3ZtSEhIcXHx8ePH58yZ0ywP2Iz0f1IDjBkzJi4urry8/PLly/WlqpSXlzNDLMHBwadOnWqWfgFahdv48QO2btU6WV1UlLJ1K/NqTPrnPzsMGeLQvz97Va1SJS1dyhwP2LbNNyyMZ/LbwknfuXPPjRkjLSh4fOZM/vnzrmPHvvAGChMSzo0ezY6U8ExNBS4ulXl5DdeSPn2avHo1EVnY24+/ckXk48Oc7zRhguf06WcCAxUVFTdXrHCfOtVCI7nKsFrG1nvLw7LYtkYqlTIHTAJjXV5eXgEBAQEBAeXl5XWvSiSSEydOENHYsWMHDx4sFApzcnKSkpJ0NsW8sIODg7t3766zgLe394QJE5iSbIqDkWjUkxrA3t5++vTpRBQZGVnfs8fGxpaWlgqFwldffbW5+gUwHpaOjv6ffcYObKTVJkcznqelPU9NJSLnwEDfDz5gow0iEvn69t+8mTnOqp33bJhcImGiDceAgIDdu2fk5HT/8MMX1so7dUpRWUlEfVevZt/cDLtevfqEhxNRTWmp+Ny5ptcytt5bHgKOtoZdFXLhwgWd7zknJ6e9e/fu3bt3+PDhda/GxsZWVFS4uLj4+/vb2NgwP811Dvvn5uYmJycTkVZOqJbAwEAiSklJYRewGAn9n9Qw1dXVEydOJKIbN27cu3dPZ5kjR44Q0dSpU62trZurXwBj033BAuYg9+RJtUZadEVWFnPQYejQupMmnYKDTfh8IiqIjdWnF75I1Hf16kl37rz6888+s2db6pc//vjMGeZAZ4pJ50mTmANxTEzTaxlb7y0PAUdbY2dnN3PmTCKKjo7esGFDaWlpo6ofP36ciKZOncpMx4wdO5Zp6tmzZ1ol8/PzmYMuXbo00KCnpydzwK7ONRL6P6lhqqure/XqxUxa6YxjUlNTr1+/TkQTJ07UWk8E0JYIXFwErq5EpKioqHn+nD2vViqZA76uJCczgUDk50dElXl5bMkGOAUE9AkPF/n6NureihITiUjo4SHQtVmAjZcXMytRfONG02sZW+8tDwFHG7Rw4cL+/fsT0d69e8eNG7d58+akpCSZTPbCipmZmfHx8aQxaNGvXz83NzeZTHapzt5/bChj22AOOZsv2djQpz4ymSyhHvoPojTqSQ1TXV3N4/FCQ0OJKDIysqysTKsAE4X4+/v37NlTc/UvQNvDTpeoFQr2pFXHjszB07g4nbWG7dv3WkLCawkJxM2CC1lpaXVhIRGJ6s8BZyKYssxMZe0/oYbVMrbeWwUCjjZIJBJ9++238+bNs7CwKC0t/eabb954443AwMD169cnJyc3kEtx7tw5Iurduze7BIPP50+ZMoWIjh07plWRTQFpeCUqe1VnyogBCgsL/1aPixcv6tlIo57UMNXV1UQUFBQkEomY1FHNq2y6aGhoKI/HwwgHtGHVhYVM8ibfxsZCY7WafZ8+zMRH3smTjw4erFvR1s/PoV8/h379NNM7mpGiooI5sKj/V5O5SKRV2LBaxtZ7q0DA0TYJBIIFCxacP39+2bJlzDu1pKRk7969oaGh8+bNE4vFdavU1NQcPXqUiCZPnqw5n8qMAdy8eTMtLU2zvJ5bVLFNNVfSqJWV1eh6dOjQQZ8WGvukhmGyd21sbGbMmEF1UkcvX74skUhEIlFQUBARIeCANiyldrsIj2nTeKam7HlTC4uX1qxhjuP+9rf4v/9dkpHRkjemqE2xN9G1iQ7DTCD4rXDtRoWG1TK23lsFlsW2ZR07dpw1a9a7776bmZl57dq1qKiojIyMn3766c6dO3v27PH5Y3pzYmLi48ePiUgrmdTX17dv3763bt2KiYnRXI0iFAqZg4Yna5gf+prlm8jBweGrr75qSguNfVLDsMuFgoODv/32WyZ1tGfPnkSkVquZdNHQ0FAmXRRTKtAmyUpLU774gtmK1NTKqufHH2sV6Dpr1vO0tLSdO4nowfffP/j++45BQV3eeKNTcHALLOnUJzXk98K1P7EMq2VsvbcKBBxtH4/H69q1a9euXWfOnHn27Nk1a9YUFhYuWbIkKipKc8+JkydPEpGPj09WVlZWbfY4w9vb+9atW1FRUWFhYexqW/aTH2VlZXU/mMJiZ1JEtaN8ra6xT2oYNtLy8/MbNGhQfHz86dOnmYAjNTU1MTGRiIKDg5kyysb8IwJghJ5cunRdYxmqWqGoFIsLYmOVUikRmVpajoqOtvH21qrFMzHpv3mzU0BA0tKlzK6gTy5denLpkqmVld+8eT0XL7Zopg0DwRgg4PgL4fP5EydOVKvVS5YsSUtLS0pKCggIYC4VFRUxOYwZGRl1N+1mFBcXx8fHs1mW7PxFVlaW1mCJptzcXOaA/cqJCZs+Vv8kC3vJpLnnbg14UsNoPt2MGTPi4+MjIyPnzp0rEomYPb4GDx7sW5tRb2yblAA01vPUVGZTjbpcx49/+dNP7Xv31nmVx+N5TJvWKTg4Nzr64YED4rNniUgplaZs3vzo4MGgY8fa136+Ef7sEHC0NVu2bBGLxb6+vu+//77OAoMGDWIO8vLy2IDj4sWLcrncysqqvg+sZGRk5OTkREdHs6/hLl26dOvWLT09PS4ubmz9+wAyHwpxd3f38vJizlhZWfH5fLlcXnfhBou91FwTMSwDnrTphg8f7uDgUFxcfPny5aCgoKioKCJicjsA2gYrFxfbPy5JLYiNVatUFvb2gfv381+004yppaVnaKhnaGilWPzoxx/vfvGFXCKpEovPjR498eZNobs7F/fcqK+NsNknhtUytt5bBQKOtkYikZw6deru3buzZ8821fW/trrJnmq1mnkFhoSErF27Vmezp0+fXrRoUUxMjFgsZr5uz+PxJkyYkJ6eHh0dPWfOHJ0feHvy5Amzm2dwcDB7MyYmJv7+/gkJCYmJicyn4eu6ffs2EVlYWHTu3Fm/59aLYU/adAKBIDQ09KuvvmJSNyQSiYODA7MlGkDb4DFlitbW5r989FHarl2ykpL0r7/uuWSJnu20c3XttXSp91tv/fzWW0+vXJGXlSWvWjV0714ObplMa6dNVfUnoqlq1/Ga1i64M6yWsfXeKrBKpa0ZM2YMEeXk5Bw+fFhnAXafia5duzIHKSkpd+7codrNr3QaMmQIk9Nw4cIF9uT06dOZvSvWrFlTUWf9VXV19WeffVZeXm5nZ/fGG29oXho3bhwRXbt27cqVK3X7ysnJOXDgABFNnTq1Xbt2DT9voxj8pE332muvEdGNGzc2b95MRK+//rqgNpMcoE3q+fHHzNvx9oYN0idPGlXXqmPH4QcO8EUiIsqOipLXPxraFOy4S41EUl8ZdqcydumHYbWMrfdWgYCjrRk0aBCzo/aaNWu2bNmSnZ3N5Aeo1erCwsJvv/123bp1RBQYGNi7dko1JiaGiJydnftrfFdJi0gkYjb/joqKYjMc7ezsVqxYQUTx8fHvvvvu1atXq6qqiEgqlTKjF0zLy5cv1/q0W0hICLNYd+HChUeOHGEnUKqrq2NjY+fMmSORSJydnXV+pVapVBbWr6ioqIG/HIOftOm8vb2ZFbCFhYVUG38AtGECF5deS5cSkaKy8s7nn2tdLcvMvDpr1tVZszL/+1+d1S2dnDoHBxPz4dnafY2bl7mtLRPTlD14UF8ZZqVuu06d2Je3YbWMrfdWgSmVtsbExGTdunUCgeDQoUMRERERERFOTk5OTk5isZjd67Nfv37r169n5jiqqqqYWQadX5fVNG7cuEOHDmVkZCQnJ/vXfoc6KCho9+7dS5YsuX37NpODaW1trbnH16ZNm+p+K1UgEOzYsWPBggWpqanh4eHh4eHe3t58Pj87O5tZTerm5rZ9+3adMxr5+fn1pV8QkbOzs85Rk6Y/adNNmzaNGV4KCgpiM1oA2jDfDz5I27VL9uxZ+u7d3d5/31Zjc0y1Uvlw/34iUspk3m+/rbO6WW0KF0c7ZvJMTBxfeSX//PmyBw+qi4stHRy0ClSJxczYTPuXX25iLWPrvVVgCDt4JwAAIABJREFUhKMNsrS0XLt27YEDB5htHgoLC1NSUphoo3fv3uvWrfv+++/ZNSNxcXHMpVGjRjXcrL+/v5ubG9V+JJY1cuTIo0ePvvnmm0yCp9aOonfv3q3StfmMu7v7/v37V6xY4e3tTUSZmZlpaWlSqdTd3Z0Z9ujVq5fBfwM6Nf1Jm2jIkCHM+mHmK7IAbZ6FnV3flSuJSK1SJa9apXnJ2tOTmXARnz+vc8ZErVIVXrvGHFvVv/C+iVxHj2YO8s+fr3s1/6efmAOX2mJNqWVsvbc83p99xyFmQWZGy+5P9ydSXV397NkziURiZmbm4OBgz+VeOjKZLD8/XyqVikQiS0vLLVu2MCMK/fv337hxY6dOneqr+PTp0+fPnyuVSnt7e0dHR525rgBghHKjoy9Pn05Efv/4h1bSKENRVRXdp09FTg4Rjb1wwVkjVzo+LOzBd98RkW9Y2IBt27T2L0/dufPG4sVE5Dhw4Kv1DFs2LHX79htLlhDR8EOH3KdM0VmmIjv7mJ+fWqm09vJ67do1zd3GZM+enQoIqMjONuHzp6Snt3Nza0ottVqddegQEVnY27vW5pC1WO9GwnTlypWtfQ9NsnPnTiKaP39+a9+IkTIzM7OxsXF0dGzfvn0Td7LSpy87OztHR0cbGxuBQDBixAhbW9srV67k5+fHxMQMHDhQK5ODJRQKHRwcHB0dhUJhs2+8AQDckaSnZx85QkSOAwa46srFNuHzLR0dc0+cICLJ/ftd33mHDSxEfn6ZP/ygksuLk5IKExLM2rVTKxSVeXmFCQm/LF6c/vXXTLHB33xj3eAnqetTlJiYf+ECEXlMm2Zbz6fOzG1t5RUVRQkJNaWl4vPnhR4e5iKRUip9evXq1VmzJOnpRNTz44/da7/5bngtleqkv3/uiROVYjE7hdRyvRsHjHAAt65fv7506dIxY8YsW7bMzAw5QwBtygtHOIhIpVCcDggouX2biIbt3++psQNN/k8/XZ4+XVFZqbMiz8TklR07utWzpdAL6TPCQUSKqqrY0FDxuXM6r7qOHz/i8OG660sbW0utVP7XyoqInAMDx2qsgGuZ3o0Efk0CtwYOHHj06NHly5cj2gD4azIxM3updtubX8PD2c+PEZHLqFEhycnd3n/f7I9b/JmYm3tMn/5afLzB0Yb+zASCoKNHB2zdqrW9mNDDY8DWrUFHjuh8cze2Fpv3avnHgd6W6d1IYIQDAABamVImK7179/SgQUQ0/PBh17FjW35Jp1qlKs/KkhUVEZGFo6O1pydPjxlePWs9T02N7tuXiPquXt0nPLyFezcS+NEJAACtzNTCgv20m7WnZ6tsIMEzMbHx8qJGLlnXs1Z+7TRK5zrbBLRA70bCeEMhAACANkBeVnbvyy+JyHPGDLuePVv7dloNRjgAAKD1mQmFryUkEJF1na/Y/9mV3rtXI5G0c3Prt2lTa99La0IOBwAAALcqsrNVCoVNm4ulGgUjHAAAANwS6vqe9l8NcjgAAACAcwg4AAAAgHMIOAAAAIBzCDgAAACAcwg4AAAAgHMIOAAAAIBzCDgAAACAcwg4AAAAgHMIOAAAAIBzCDgAAACAcwg4AAAAgHMIOAAAAIBzCDgAAACAcwg4AAAAgHMIOAAAAIBzCDgAAACAcwg4AAAAgHMIOAAAAIBzCDgAAACAcwg4AAAAgHMIOAAAAIBzCDgAAACAcwg4AAAAgHMIOAAAAIBzCDgAAACAcwg4AAAAgHMIOAAAAIBzCDgAAACAcwg4AAAAgHMIOAAAAIBzCDgAAACAcwg4AAAAgHMIOAAAAIBzCDgAAACAcwg4AAAAgHMIOAAAAIBzCDgAAACAcwg4AAAAgHMIOAAAAIBzCDgAAACAcwg4AAAAgHMIOAAAAIBzCDgAAACAcwg4AAAAgHMIOAAAAIBzCDgAAACAcwg4AAAAgHMIOAAAAIBzCDgAAACAcwg4AAAAgHMIOAAAAIBzCDgAAACAcwg4AAAAgHMIOAAAAIBzCDgAAACAcwg4AAAAgHMIOAAAAIBzCDgAAACAcwg4AAAAgHMIOAAAAIBzCDgAAACAcwg4AAAAgHMIOAAAAIBzCDgAAACAcwg4AAAAgHMIOAAAAIBzCDgAAACAcwg4AAAAgHMIOAAAAIBzCDgAAACAcwg4AAAAgHMIOAAAAIBzCDgAAACAcwg4AAAAgHMIOAAAAIBzCDgAAACAcwg4AAAAgHMIOAAAAIBzCDgAAACAcwg4AAAAgHMIOAAAAIBzCDgAAACAcwg4AAAAgHMIOAAAAIBzCDgAAACAcwg4AAAAgHMIOAAAAIBzZq19AwAAAEREj0+flpWU2Pfta9erV2vfCzQ/jHAAAIBRSNm27ers2U8uXWrtGwFOYISjjVOpVKWlpdXV1TY2NkKhkMfjcdeXWq0uLS2VSqVWVlZ2dnac9gUAAH8uCDjarIyMjCNHjpw7d66goIA507lz50mTJk2ePNnV1bXhumKxeO7cuUT04Ycfjh49+oV9FRYWHjly5MSJEzk5OcwZd3f3kJCQadOmOTs7axWurKx8/fXXiWjOnDkhISE6G7xz5054eDgRrV279qWXXmJO7tix48KFCw3fiZ+f3+eff/7CG2Y18KTJycmrVq3Sv6nIyEgrKyvN+3R3d9+5c+cLA69z587t2rWLOd67d6+9vb3+nQJA81LJ5cTjmZg17uVoWC1j651rxn5/YJiDBw+uW7dOLpdrnszNzd2xY8fevXvXrFnz2muvNVD9woUL6enpRHTkyJEXBhxXrlxZunRpSUmJ5smcnBymr40bN44cOVLzkkqlYhqvqqqqr025XM6UqampYU+WlZUxJxvg5OTUcAEtDTxpTU3NC7vTpFarte4zPT09NTW1R48eDVc8cOAA25FKpdK/R4BWVxgff2/btrrnTczNLezsrLt0ad+vn9PgwQ2/C8sePnywZ0/eqVOStDQi+nXVqvxLl7xmznSfMqUpL1GVQvH0ypVHBw96TJ/uOmZMw4WfXrv2cN++xzEx0vx8nomJwMXF7dVXvd5+23HAgGavZWy9txgEHG1QTEzM6tWriWjo0KHvvfdet27dbG1tKysrU1NTIyIi4uLiFi1aJBKJhgwZorO6UqmMjIxkjmNjY7Ozsz08POrr69q1a2FhYXK53M3Nbd68ef7+/iKRSCKR3Lp169///ndWVlZYWFhERMSIESOa6+mcnZ0jIiLqu2ppaal/Uw0/affu3aOjo7Wq/P3vfy8oKAgJCZk1a5bWJQsLi7pdnDp1quGA4/79+wkJCfrfM4BRqS4qyq3zfxMtQg+P/ps3d544UefVh/v2xYeFqTR+WiilUvHZs+KzZzuOHDn84EFzW9vG3pUkPT07KurBd99VPn5MRG7jxzdQWK1S3QwPv7dli+aZyseP07/5Jv2bb3qHh/ddtaruOKVhtYyt9xaGgKOtUSqV27ZtI6JBgwbt3r3b3NycOS8UCgcMGNC7d+958+bFxcVt3Ljx+PHjfD6/bgvJycmZmZlWVlZ9+vS5fv36hQsX3nvvPZ19SSSSTz75RC6X9+zZMyIiwtHRkTlva2vr7u4+bNiwefPmJSUlhYeHnzx5sn379s3ygHw+38/Pr1maavhJra2t63bE/I21b99ez3uIjIwMCwuzsbGpr8Dp06cNuncA42Lt5eXg78/+USWXV4nFxUlJaqWyIjv78rRp/ps29Vi0SKuW+Pz5q7NnM8cdhg1zDgy0dHSU3L//YM8eZXX1k4sX4955J+j4cT3fnbKSkrxTpzJ/+OHp1av633narl3Mm5tvY9Nj4UL7vn1JrS66cSN1+3alVHpn/fp2Li4+df4NNKyWsfXewhBwtDV5eXlZWVlENHnyZDbaYFlaWs6ZMycuLi4jI+POnTv9+vWr28KZM2eIaNKkSQMHDrx+/XpkZOQ777yjMzQ5ceIEkyCybt06Ntpg2dnZrV27NiQkpLi4+Pjx43PmzGmWB2xG+j+pAcaMGRMXF1deXn758uX6UlXKy8uZIZbg4OBTp041S78ArcJt/PgBW7dqnawuKkrZupV5NSb9858dhgxx6N+fvapWqZKWLmWOB2zb5hsWxjP5beGk79y558aMkRYUPD5zJv/8edexY194A4UJCedGj2ZHSnimpgIXl8q8vIZrSZ8+TV69mogs7O3HX7ki8vFhzneaMMFz+vQzgYGKioqbK1a4T51qoZFcZVgtY+u95WFZbFsjlUqZAyaBsS4vL6+AgICAgIDy8vK6VyUSyYkTJ4ho7NixgwcPFgqFOTk5SUlJOptiXtjBwcHdu3fXWcDb23vChAlMSTbFwUg06kkNYG9vP336dCKKjIys79ljY2NLS0uFQuGrr77aXP0CGA9LR0f/zz5jBzbSapOjGc/T0p6nphKRc2Cg7wcfsNEGEYl8fftv3swcZ9XOezZMLpEw0YZjQEDA7t0zcnK6f/jhC2vlnTqlqKwkor6rV7NvboZdr159wsOJqKa0VHzuXNNrGVvvLQ8BR1vDrgq5cOGCzveck5PT3r179+7dO3z48LpXY2NjKyoqXFxc/P39bWxsmJ/mOof9c3Nzk5OTiUgrJ1RLYGAgEaWkpLALWIyE/k9qmOrq6okTJxLRjRs37t27p7PMkSNHiGjq1KnW1tbN1S+Asem+YAFzkHvypFojLboiK4s56DB0aN1Jk07BwSZ8PhEVxMbq0wtfJOq7evWkO3de/flnn9mzLfXLH3985gxzoDPFpPOkScyBOCam6bWMrfeWh4CjrbGzs5s5cyYRRUdHb9iwobS0tFHVjx8/TkRTp05lpmPGjh3LNPXs2TOtkvn5+cxBly5dGmjQ09OTOWBX5xoJ/Z/UMNXV1b169WImrXTGMampqdevXyeiiRMnaq0nAmhLBC4uAldXIlJUVNQ8f86eVyuVzAFfV5KTmUAg8vMjosq8PLZkA5wCAvqEh4t8fRt1b0WJiUQk9PAQ6NoswMbLi5mVKL5xo+m1jK33loeAow1auHBh//79iWjv3r3jxo3bvHlzUlKSTCZ7YcXMzMz4+HjSGLTo16+fm5ubTCa7VGfvPzaUsW0wh5zNl2xs6FMfmUyWUA/9B1Ea9aSGqa6u5vF4oaGhRBQZGVlWVqZVgIlC/P39e/bsqbn6F6DtYadL1AoFe9KqY0fm4GlcnM5aw/btey0h4bWEBOJmwYWstLS6sJCIRPXngDMRTFlmprL2n1DDahlb760CAUcbJBKJvv3223nz5llYWJSWln7zzTdvvPFGYGDg+vXrk5OTG8ilOHfuHBH17t2bXYLB5/OnTJlCRMeOHdOqyKaANLwSlb2qM2XEAIWFhX+rx8WLF/VspFFPapjq6moiCgoKEolETOqo5lU2XTQ0NJTH42GEA9qw6sJCJnmTb2NjobFazb5PH2biI+/kyUcHD9ataOvn59Cvn0O/fprpHc1IUVHBHFjU/6vJXCTSKmxYLWPrvVUg4GibBALBggULzp8/v2zZMuadWlJSsnfv3tDQ0Hnz5onF4rpVampqjh49SkSTJ0/WnE9lxgBu3ryZlpamWV7PLarYpporadTKymp0PTp06KBPC419UsMw2bs2NjYzZsygOqmjly9flkgkIpEoKCiIiBBwQBuWUrtdhMe0aTxTU/a8qYXFS2vWMMdxf/tb/N//LsnIaMkbU9Sm2Jvo2kSHYSYQ/Fa4dqNCw2oZW++tAsti27KOHTvOmjXr3XffzczMvHbtWlRUVEZGxk8//XTnzp09e/b4/DG9OTEx8fHjx0SklUzq6+vbt2/fW7duxcTEaK5GEQqFzEHDkzXMD33N8k3k4ODw1VdfNaWFxj6pYdjlQsHBwd9++y2TOtqzZ08iUqvVTLpoaGgoky6KKRVok2SlpSlffMFsRWpqZdXz44+1CnSdNet5Wlrazp1E9OD77x98/33HoKAub7zRKTi4BZZ06pMa8nvh2p9YhtUytt5bBQKOto/H43Xt2rVr164zZ848e/bsmjVrCgsLlyxZEhUVpbnnxMmTJ4nIx8cnKysrqzZ7nOHt7X3r1q2oqKiwsDB2tS37yY+ysrK6H0xhsTMpotpRvlbX2Cc1DBtp+fn5DRo0KD4+/vTp00zAkZqampiYSETBwcFMGWVj/hEBMEJPLl26rrEMVa1QVIrFBbGxSqmUiEwtLUdFR9t4e2vV4pmY9N+82SkgIGnpUmZX0CeXLj25dMnUyspv3ryeixdbNNOGgWAMEHD8hfD5/IkTJ6rV6iVLlqSlpSUlJQUEBDCXioqKmBzGjIyMupt2M4qLi+Pj49ksS3b+IisrS2uwRFNubi5zwH7lxIRNH6t/koW9ZNLcc7cGPKlhNJ9uxowZ8fHxkZGRc+fOFYlEzB5fgwcP9q3NqDe2TUoAGut5aiqzqUZdruPHv/zpp/a9e+u8yuPxPKZN6xQcnBsd/fDAAfHZs0SklEpTNm9+dPBg0LFj7Ws/3wh/dgg42potW7aIxWJfX9/3339fZ4FBgwYxB3l5eWzAcfHiRblcbmVlVd8HVjIyMnJycqKjo9nXcJcuXbp165aenh4XFze2/n0AmQ+FuLu7e3l5MWesrKz4fL5cLq+7cIPFXmquiRiWAU/adMOHD3dwcCguLr58+XJQUFBUVBQRMbkdAG2DlYuL7R+XpBbExqpVKgt7+8D9+/kv2mnG1NLSMzTUMzS0Uix+9OOPd7/4Qi6RVInF50aPnnjzptDdnYt7btTXRtjsE8NqGVvvrQIBR1sjkUhOnTp19+7d2bNnm+r6X1vdZE+1Ws28AkNCQtauXauz2dOnTy9atCgmJkYsFjNft+fxeBMmTEhPT4+Ojp4zZ47OD7w9efKE2c0zODiYvRkTExN/f/+EhITExETm0/B13b59m4gsLCw6d+6s33PrxbAnbTqBQBAaGvrVV18xqRsSicTBwYHZEg2gbfCYMkVra/NfPvoobdcuWUlJ+tdf91yyRM922rm69lq61Putt35+662nV67Iy8qSV60auncvB7dMprXTpqr6E9FUtet4TWsX3BlWy9h6bxVYpdLWjBkzhohycnIOHz6sswC7z0TXrl2Zg5SUlDt37lDt5lc6DRkyhMlpuHDhAnty+vTpzN4Va9asqaiz/qq6uvqzzz4rLy+3s7N74403NC+NGzeOiK5du3blypW6feXk5Bw4cICIpk6d2q5du4aft1EMftKme+2114joxo0bmzdvJqLXX39dUJtJDtAm9fz4Y+bteHvDBumTJ42qa9Wx4/ADB/giERFlR0XJ6x8NbQp23KVGIqmvDLtTGbv0w7BaxtZ7q0DA0dYMGjSI2VF7zZo1W7Zsyc7OZvID1Gp1YWHht99+u27dOiIKDAzsXTulGhMTQ0TOzs79Nb6rpEUkEjGbf0dFRbEZjnZ2ditWrCCi+Pj4d9999+rVq1VVVUQklUqZ0Qum5eXLl2t92i0kJIRZrLtw4cIjR46wEyjV1dWxsbFz5syRSCTOzs46v1KrVCoL61dUVNTAX47BT9p03t7ezArYwsJCqo0/ANowgYtLr6VLiUhRWXnn88+1rpZlZl6dNevqrFmZ//2vzuqWTk6dg4OJ+fBs7b7Gzcvc1paJacoePKivDLNSt12nTuzL27BaxtZ7q8CUSltjYmKybt06gUBw6NChiIiIiIgIJycnJycnsVjM7vXZr1+/9evXM3McVVVVzCyDzq/Laho3btyhQ4cyMjKSk5P9a79DHRQUtHv37iVLlty+fZvJwbS2ttbc42vTpk11v5UqEAh27NixYMGC1NTU8PDw8PBwb29vPp+fnZ3NrCZ1c3Pbvn27zhmN/Pz8+tIviMjZ2VnnqEnTn7Tppk2bxgwvBQUFsRktAG2Y7wcfpO3aJXv2LH337m7vv2+rsTmmWql8uH8/ESllMu+339ZZ3aw2hYujHTN5JiaOr7ySf/582YMH1cXFlg4OWgWqxGJmbKb9yy83sZax9d4qMMLRBllaWq5du/bAgQPMNg+FhYUpKSlMtNG7d+9169Z9//337JqRuLg45tKoUaMabtbf39/NzY1qPxLLGjly5NGjR998800mwVNrR9G7d+9W6dp8xt3dff/+/StWrPD29iaizMzMtLQ0qVTq7u7ODHv06tXL4L8BnZr+pE00ZMgQZv0w8xVZgDbPws6u78qVRKRWqZJXrdK8ZO3pyUy4iM+f1zljolapCq9dY46t6l9430Suo0czB/nnz9e9mv/TT8yBS22xptQytt5bHu/PvuMQsyAzo2X3p/sTqa6ufvbsmUQiMTMzc3BwsOdyLx2ZTJafny+VSkUikaWl5ZYtW5gRhf79+2/cuLFTp071VXz69Onz58+VSqW9vb2jo6POXFcAMEK50dGXp08nIr9//EMraZShqKqK7tOnIieHiMZeuOCskSsdHxb24LvviMg3LGzAtm1a+5en7tx5Y/FiInIcOPDVeoYtG5a6ffuNJUuIaPihQ+5TpugsU5GdfczPT61UWnt5vXbtmuZuY7Jnz04FBFRkZ5vw+VPS09u5uTWlllqtzjp0iIgs7O1da3PIWqx3I2G6cuXK1r6HJtm5cycRzZ8/v7VvxEiZmZnZ2Ng4Ojq2b9++iTtZ6dOXnZ2do6OjjY2NQCAYMWKEra3tlStX8vPzY2JiBg4cqJXJwRIKhQ4ODo6OjkKhsNk33gAA7kjS07OPHCEixwEDXHXlYpvw+ZaOjrknThCR5P79ru+8wwYWIj+/zB9+UMnlxUlJhQkJZu3aqRWKyry8woSEXxYvTv/6a6bY4G++sW7wk9T1KUpMzL9wgYg8pk2zredTZ+a2tvKKiqKEhJrSUvH580IPD3ORSCmVPr169eqsWZL0dCLq+fHH7rXffDe8lkp10t8/98SJSrGYnUJqud6NA0Y4gFvXr19funTpmDFjli1bZmaGnCGANuWFIxxEpFIoTgcElNy+TUTD9u/31NiBJv+nny5Pn66orNRZkWdi8sqOHd3q2VLohfQZ4SAiRVVVbGio+Nw5nVddx48fcfhw3fWlja2lVir/a2VFRM6BgWM1VsC1TO9GAr8mgVsDBw48evTo8uXLEW0A/DWZmJm9VLvtza/h4eznx4jIZdSokOTkbu+/b/bHLf5MzM09pk9/LT7e4GhDf2YCQdDRowO2btXaXkzo4TFg69agI0d0vrkbW4vNe7X840Bvy/RuJDDCAQAArUwpk5XevXt60CAiGn74sOvYsS2/pFOtUpVnZcmKiojIwtHR2tOTp8cMr561nqemRvftS0R9V6/uEx7ewr0bCfzoBACAVmZqYcF+2s3a07NVNpDgmZjYeHlRI5es61krv3YapXOdbQJaoHcjYbyhEAAAQBsgLyu79+WXROQ5Y4Zdz56tfTutBiMcAADQ+syEwtcSEojIus5X7P/sSu/dq5FI2rm59du0qbXvpTUhhwMAAIBbFdnZKoXCps3FUo2CEQ4AAABuCXV9T/uvBjkcAAAAwDkEHAAAAMA5BBwAAADAOQQcAAAAwDkEHAAAAMA5BBwAAADAOQQcAAAAwDkEHAAAAMA5BBwAAADAOQQcAAAAwDkEHAAAAMA5BBwAAADAOQQcAAAAwDkEHAAAAMA5BBwAAADAOQQcAAAAwDkEHAAAAMA5BBwAAADAOQQcAAAAwDkEHAAAAMA5BBwAAADAOQQcAAAAwDkEHAAAAMA5BBwAAADAOQQcAAAAwDkEHAAAAMA5BBwAAADAOQQcAAAAwDkEHAAAAMA5BBwAAADAOQQcAAAAwDkEHAAAAMA5BBwAAADAOQQcAAAAwDkEHAAAAMA5BBwAAADAOQQcAAAAwDkEHAAAAMA5BBwAAADAOQQcAAAAwDkEHAAAAMA5BBwAAADAOQQcAAAAwDkEHAAAAMA5BBwAAADAOQQcAAAAwDkEHAAAAMA5BBwAAADAOQQcAAAAwDkEHAAAAMA5BBwAAADAOQQcAAAAwDkEHAAAAMA5BBwAAADAOQQcAAAAwDkEHAAAAMA5BBwAAADAOQQcAAAAwDkEHAAAAMA5BBwAAADAOQQcAAAAwDkEHAAAAMA5BBwAAADAOQQcAAAAwDleTU1Na98DAAAAtHEY4QAAAADOIeAAAAAAziHgAAAAAM4h4AAAAADOIeAAAAAAziHgAAAAAM4h4AAAAADOIeAAAAAAzpm19g3oRSKRVFRUmJub29nZmZm9+J5ramqeP3+uVqttbW0tLCxa4A4BAACgAUYdcJSVlR07duz48eNpaWnMGWtr68DAwClTpgwePJjH49Wtcv/+/X379sXExJSXlxORUCgcPXr0W2+91bNnzxa9dQAAANBgvFubp6enf/jhh1lZWTqvhoaGrly50tzcXPPksWPHli1bprP86tWrZ86c2fx3CQAAAHow0oCjpKRkypQp+fn5DZRZsGDBvHnz2D/euHGj4ZDiu+++Gzp0aLPdIgAAAOjNSJNGT5w4wUYbffv2PXr06L17927cuLFixQq2zNdff83MmxCRWq3+8ssv2UvLly+/efPmrVu31q9fz57ctm2bSqVqkdsHAACAPzDSgOPmzZvs8erVq3v16sXn80Ui0dtvv/3qq68y52UyWWZmJnP88OHDGzduMMfBwcHvvPOOtbW1QCCYPn36G2+8wZxPSUm5d+9eCz4EAAAA/MZIA46PPvooupavr6/mpe7du7PHVVVVzEFGRgZ7MjAwULO85jRKeno6J7cLAAAADTLSVSpeXl71XcrNzWWPnZ2dmYPHjx+zJ11cXDTLs2W06gIAAECLMdIRjvpcvXo1MjKSOR45ciQbl1RUVLBlrKysNKtYWlqyx2zOBwAAALQkIx3h0HTmzJnr168rFIqsrCw2t6NLly6rVq1iy0il0vqqm5j8HlSxUzAAAADQkv4EAcejR48OHTqkeebVV19dtWqVvb09e0atVuvTlJ7FAAAAoHn9yaZUGBcvXty7d69MJmvtGwEAAAC9/Ako3YsOAAAgAElEQVRGOMaMGdO9e3eVSvX06dP//e9/ycnJMpls9+7dRUVF69evZzY417nNeV16FgMAAIDm9ScY4fDx8QkKCho1atTMmTN//PHHoKAg5nxUVFRycjJzrJkZqjVvovlHrXxSAAAAaBl/goBDk5mZWWhoKPtHNodUKBSyJ7WmWjTzSa2trTm+QQAAMNClJ9kncjPuPS9q7RsBThjjlIpMJjt//jxzLBAIRo4cqXnV1taWPX727Blz4Obmxp588uSJZvmnT5+yx506dWr2uwUAgGZx9vEjcVX5eDevHraOrX0v0PyMMeDg8/lr1qxh9sywsLCIi4vTDDJSU1PZY3ahSteuXdmTV69enTBhAvvH69evs8eaxcCYVVRUlJWV8fl8Ozs7M7MX/69UKpU+f/7czMxMz/KNbR8AAJrIGKdUTExMhg0bxhzLZLKVK1cyG4kqFIrLly9rfqTtpZdeYg66du3KHh8/fvzEiRNKpVKtVl+8ePHHH39kznt5efXu3bvlHsNoiMXiCRMmTJgw4cKFC/WVqaysZMpER0fXV+bOnTtMGTZ1Zu3atcwZzShQy9atW5kyCQkJL7xVuVweHR09c+bMl19+efjw4YMHDx48ePCaNWsePXpUX5WbN2/Onz/f398/MDBw8ODBQ4YM+fTTT8VicXO1z8rMzPz6669DQkJeWPKFIiIitP4mAeBPTa5SKZrj46CGtdNcvXPNSD9Pf/fu3alTp2qecXZ2Li0t1czPGDVq1K5du9h9va5evTpr1iz2qr29vbm5eUFBAXtm+/bt48eP5/jGjdEPP/ywYcMGIho+fPg333yjs0x5eXm/fv2I6F//+tf//d//6Sxz8+ZN5tK+ffteeeUVIsrNzZ00aVJFRcUrr7yyZ88ePp+vVeXXX399/fXXiSg4OHjLli0NrxIqLy9fsmTJpUuXiMjCwsLNzS0/P59JwREKhTt27BgyZIhWlaNHj37yySfMsbu7u1QqLSwsJCIHB4c9e/ZofYXHgPaJqLS09Oeffz5x4kR8fDwR2dnZJSYmNvAUL5SSkjJlyhTmmP2bBPiT+qU4/1ReZt3zZjwTKzMzJ8t2Pjb2/R06mpk09OM2q/z5mccPU58Xl9ZUE5Epj9e5nU2Ak9s41y4NV2yYQqVKLMq/8jRvsJPbMOeG5tMPPLp3X/Ks4dZW9hnCr3MzvxTlXy7IeVBWWqWQ84gEZnwfkf3Ijh4vt3fW2Uh9DGunuXpvMUY6mNyrV69///vfixYtYiMMzdCBiIYNG7ZhwwbNXUSHDBmyYsWKdevWMX8sKSnRLD9//vxx48ZxfNfGSKlUspvBx8bGZmdne3h4NFfjnTt3Xrx48b/+9a/ExMSoqCitSEUmk3322WdEJBKJPv744xeuSf70008vXbpkZWW1atWq8ePHCwQCuVz+yy+/rF69Ojc3d9GiRadPn3ZycmLLP3r0iNltdtKkSYsXL+7QoYNarb59+/bKlSvT09OXL19+6NAhc3Nzg9tPSUmJjIw8fvx4M+74IpPJPv300+ZqDaDVPZfJMstKGyhwTvzImm8+zcN3tIunzgIncjOisu+rNJYTKtXqrApJVoXk6tO8Zb0H2ZpbNPauHpSVxBbk/lKUX6mQE9FL9k4Nl7///FlmeUNPQUSqOusfd92/mVD4+2CqmqhSIU9+9jT52dNhzp3/3u0lfbZhMKyd5uq9hRnjlApj1KhRZ86ceffddzXfAUQ0cODArVu3RkREaCZ2MN5+++0ff/xxxIgRWuX/85//zJ8//6+5CUdycnJmZqaVldXAgQOJqIFZFcPMmDGjf//+RLR582atiYyDBw/evn2biJYuXar1Rb267t69e+LECSL69NNPp06dKhAIiIjP5w8ePHj9+vVEJJFItG7+8OHDcrncx8fnX//6V4cOHYiIx+P17dt348aNRJSSknL16tWmtH/q1KlDhw7JZLKAgICNGzfOnj3bwL8jDT/++GNycjKSl6HtseFb+Ikc2P/42Nh3sGrH/JtbLq/5/sGd/2berVvrSkFeZFYa8y53FVgPd+48sXNXf4eOpjweEeVWlm1Oua7//tClNdXHc9I/vnFxdXLc5Sc5TLShD4lcRkQmPF47M359/9F6gfz46B7zvuebmAx3dp/dtc+7XXsP7dCJufMrBblHstL06dqwdpqr9xZmpCMcjE6dOn3yySdLliwpKChgUvycnJxEIlEDVfr379+/f//S0tKioiK1Wt2+fXsHB4cWu2EjdObMGSKaNGnSwIEDr1+/HhkZ+c4779Sd+zAYn88PDw+fNGlSeXn5li1b2HmTnJycbdu2EdHgwYPZGYQGMPMU9vb2dQeiXnnllS5dujx69Cg9PZ09qVAoTp8+TUQzZszQ2l6lR48eQ4YMuXr1alxcHLtrS2Pbp9qBmaCgIG9vbyL69ttv9fkLaUBmZua2bdv4fP7HH3+8YMGCJrYGYFS6iewX9RigdbK4uupgVirzaowRP+pl5/RS+w7sVaVaHZn1W/pXcCfv//Pszv4szCgr2XQnQapUPCp//nNB7nDnzi+8gRvFT7an3mDHIXhE7cz4FfrFHJIaGRF5CEXrXg7Up3xhdeV5cRYRmZuYrugz2NvGjjk/2sVzmHOnTXevK1SqM48fjnb1tDO3bPZ2mqv3lme8IxwsMzMzNze37t27d+3ateFog2VnZ+fj49OtW7e/eLQhkUiYn/Vjx44dPHiwUCjMyclJSkpq3l66d+8+f/58Ijp16tRPP/1ERGq1evPmzVKplM/nf/LJJ6ampi9spKSkxNnZuX///pqTIKwuXbrQH/dwe/LkCZOu0bNnz7rlBwwYQES//vqrwe0TUVhY2Pvvv89EG02nVCo/++wzmUy2cOFCreQSgLbKwVIw389/oKMr88fTj/+Q7fGgrKSkppqIXAXW/9elh+YgtI+N/WT3bsxxfOFjffqqkNcw0UZHK+Fk925fvjJ6qB5hChFVKGpqVEoi0v/1/HNBnkKtIqKxrl3Y9z2jh61jUEd3IqpRKeOe5nHRTnP13vL+BAEHGCw2NraiosLFxcXf39/GxoZZYcEMDDSv2bNnd+vWjYg2btwokUhiYmLOnTtHRAsXLvTx8dGnhaVLl165cmXnzp11L6nV6uzsbCLy9Px9DpjN6dGacWN07NiRiNLS0tic6Ma23+yOHj0aFxfXs2fPN998k7teAIzQdI/fIuyMshKlRlgvrixnDrxt7OpOeAd1dDfh8Ygou/y5Pr0I+eYjOrqv6Tt0y4CR0z18HS0Fet7es+rfNodsb6HvVtR3SgqZg0BdMU1gh85axZq3nebqveUh4GjLjh8/TkRTp05lftaPHTuWiKKjo9kN05qLQCAIDw8nory8vC+++GLTpk1E1Fwv15SUlMzMTCLSzM6pqqpiDjR3tWexkyya+8w2qv3mJRaLv/jiCyJasWIF9teHv5qOAmE7Mz4RKVSqMvnvKdhs8GFlqmNyX2DGZ4YcKhRypfrFaz77O3R8z6evj8j+hSW1FMt++1fCzkLfEQ5xVTkRWfPNXQTCulc9rW3NTUxJI6Jq3naaq/eWh4CjzcrMzGRWcrJbtfbr18/NzU0mkzFLQ5vXwIEDZ86cSUSRkZH5+flEFB4e3vSXq0Kh2Lp1KxFNnjxZcwSCXTmic76G3cvrhQtM6mu/GanV6s8//1wikcyePfvll1/mogsAI8cOYMg1totwsPzt34cH9axz+Ydfv6W9Bi7tNVCjgeZXUhtwOFjoNSjyvKa6WqkgIof6R0SYwRKJXCZTKpu3nebqvVUg4GizmEmN3r17+/n5MWf4fD6Tv3ns2DGtfIVmMX/+fGfn39Z/z5o1i9nYo4kiIiKuXbtmb2+/aNEizfPNdf/1td+Mzpw5c/bs2c6dO8+dO5ejLgCMWWF1FZO8yTcxaa8xitDD1tHS1IyIHpaX/i/vQd2K3UTt+9p36GvfwZTLNYbPa6qZAwtT0xO5GZvuJvwz6fKSG5c23U048/hh3Xd2ufy3iVors3qz7y1rx2wqFPXudGVYO83Ve6tAwNE21dTUHD16lIgmT56smYrFjHbcvHkzLa35F00pFAqFQsEc6zOX8UJnzpzZvn07EX366adsKNOMuG6fiIqKipjNSMLDw/VMeQZoYw49+m0pSndbB1Pe7y8dC1PT8W5d2DKb7iY0vKUHR0prx0G/TL0RmZV2u6Qwr7JMXFV+u6Rw/8OUxb/8pHVXbAhixqv3BWpeO/JaVf8yGcPaaa7eWwUCjrYpMTGR2Q9++PDhmud9fX379u1LRDExMc3bo1qt3rp1a3FxMfPHgwcPXrt2rSkNJiYm/vOf/ySiJUuWjB492rBGGth8pVnaf6Evv/yysLBw8uTJWv9FAPwVPK+p3pWWdL1ITESmPN40d+31WdPcfQc4/LZJz+2SwlXJV/6ZdPl4Tnpp7ahDy9wkc6BSq/kmJh2thF2sbW34vy1nK6mp3nAnnkmbYOiTUMJS1T8Wa1g7zdV7qzDqfTjAYCdPniQiHx+frKysrKwszUve3t63bt2KiooKCwtrxgTGS5cuHTt2jIjeeuutK1eu5OTkrFu3LjIy0tra2oDW0tLSPvzwQ5lM9tZbb+nccYtd3cqOqWhS1c4T61wEq0/7zSI2NvbIkSP29vYfffTRX3PfOfjreFhWuiXl913/lWq1pKY6t7KMyQw15fHCfF/2+uMaTiLi8XgLevQ/+/jh8Zx0Zp+uvMqyvMqyYznprzi6/F+XHvqvHDGYs1W7dmb8aqUiuFPX4E7e7WqnKhIKxXse3K5UyKuViv9k3F7dV8enD6BREHC0QUVFRcza14yMDM3vy2gqLi6Oj49n80nZTeIbyI1gL5nU+aCARCJhJg48PT0XLlw4ePDguXPnPnz48D//+Y8BuRG5ubn/+Mc/SktLQ0JCli1bVrc7ImrXrh1zoHPuprKykjnQGVHp037TSSQSZg/TDh06aG0aVlZWxhzs37+f2d70o48+YjY/BfiTKqmpLnlWoPOSp1D0f1169LTT/cV5HtGrbl5BHd1/ys9OKHycVSEhIqVaHV8ovl1SOL+7f2+7F2xM3kRve/d6y7uXpKba9o/7cAQ4uTpYWq29dVWpVqdLnj0sL/Wy1g6YoFEQcLRBFy9elMvlVlZWOr9GRkQZGRk5OTnR0dFswGFlZcXn8+VyOfsurIu9JBRqr8X66quvcnNziSg8PNza2nrEiBETJ0783//+t3v37pEjRzbqI73FxcXz58/Py8sLCgpau3ZtfZuiMnuZE1FRUVHnztqL0Z88eUJEfn5+dUc49Gy/6XJycnJycogoLS2tvowZJrGXiJid0wD+vARmfK3RiMeVZWoicxPTT3oPEvJ1jzWyLE3Ngjt5B3fyFleVnxdn/VyQW6NSVirkW1IS1740zF3Ibf4Tj8hW165fXW3sX3F0iS8UE9GdkkIm4OA1ZslMA5kWhrXTXL23CgQcbY1arY6KiiKikJCQtWvX6ixz+vTpRYsWxcTEiMViV1dXIjIxMfH3909ISEhMTKxvMQXzYRQLCwutF/wvv/zyww8/ENGUKVOGDRtGRDweb/HixT///LNEIlm3bt2+ffssLPT6/FJ5efnixYvT0tL69++/adOmBmZ8XF1d7e3tS0pKUlJS6i6HuXnzJhEx2SqGtd90nTp1+s9//qPzUkFBwYoVK4hoyZIlzIZp2JwD/ux62DpobW2+7d4vN4qf1KiUUdn33+mq768OV4H1u117j3frsiXlF3FVuVyl2vcwZUWfwRzcsl762ndgAg42jcOiNiVTUX86hbJ2VtdC1xYjTWmnuXpvFcYV/kDTpaSk3Llzh2q3+dJpyJAhzBtO83NlzEdGrl27duXKlbpVcnJyDhw4QERTp05lpzOIqKqqipk4YDIV2PMdO3ZcsmQJEd26devHH3/U585rampWrFiRkJDQvXv3L7/8suE1HWZmZhMnTiSiw4cPV1f/Ib8sMzPz559/JqKhQ4ca3H7T2dnZDasH87k7Iurduzdzpr5cE4A/r9c9uzPLWS89ySmQVjSqrrOVcGmvgcwGVvclz8pqmu2LzY3lULtjKfspOOva0RpmPwydpLWXBGb1vvINa6e5em8VCDjaGmb5CfPdkPrKiEQiZpvzqKgoZe0iq5CQEGbHjoULFx45coSdQKmuro6NjZ0zZ45EInF2dn7vvfc0m9qzZw8zX7Bs2TKtXcanTJkSEBBARNu2bXv48GHDt61UKjds2HD27FlnZ+fPP/+8Xbt2VbpobuQ1ffp0IsrMzFy3bp1EImFOZmdnM3ue+vj4aM4oGdA+ADRFR4FwmHNnIlKoVQdrV8ayHpaVbrgdv+F2/PGcdF21ydFS0NXGjohUanWBtJLru60Pu1MZE/0QkZ25JXPM7hhWV2mNlIiEZnxB/btlGNZOc/XeKowr/IEmqqqqYuZTJk+e3PCP5nHjxh06dCgjIyM5Odnf35+IBALBjh07FixYkJqaGh4eHh4e7u3tzefzs7OzmcRMNze37du3M1MwjNTU1B07dhBRYGDghAkTtLowMzP75JNPpk6dKpPJPvvss4iIiAa+4nbz5k1mBKWgoCA4OLi+YjNnzly9ejVz3LVr11WrVq1duzYyMvLMmTN9+vSprq5mJlOEQuG6des0dz03oH0AaKLpHr7xhY9lSmVS8ZN0ybNuovbsJRWpU54XEZFCrWK/06aFnRFgPq7GhR8f3Tv7+CERLeze39+hY90C+bUzKWySB4/H6ygQ5lRIntfIiqul7H6pGlUqqhQKInLWtfU4y7B2mqv3VoERjjYlLi6utLSUiEaNGtVwSX9/fzc3N6r9fj3D3d19//79K1asYD6RmpmZmZaWJpVK3d3dmWGPXr16sYVramqYyRQLC4tly5bpDCZ8fX3DwsKI6MqVK8yHXeqjNGgL3jfffDMiIuKll16qqKi4du0aE22MHz/+0KFDWgkchrUPAE1ha245xqULEamJfnx0T/NS53YiZsLlUflzzQ+ssNRqdXbFbyOXTlZcreHyEIpUarVKrf712VOdBZKKnzAHPja/f6Wlu+1v3yHX+SVbZt8RIuphq3thThPbaa7eWx6P/ZwmgKanT58+f/5cqVTa29s7Ojrq84n5VvT06dPS0lJTU1MnJyds6AnQYs6Ls37IvENE/R06aiWNMqoU8oW//FQhryGi+X7+AU6/D5Fuuptwu6SQiPq1d17YY4DW/uX7H6acefyQiJyt2m0d8IJfUDrte5jCjF687dVznJuXzjIypfIf189VKuSmPF54n8G+GmMwRBT3NG/3/V+JSMg33/nKGDZhM6dCsvxmrJrIhm+xoV+gvcbynGcy6fKbseXyGhMeb1O/Ea7tftuISE10Mu8BEdnwLYbXfuXVgHYMrmUMTFeuXNna96CDUqlUKBR6vuSUSqVareZoN4W/LKFQ6ODg4OjoKBQKjf/vlrnb9u3b6/x4LABw5GH581slT4nIVWCtGUyw+CamaqKU0iIiyqmQjHb1MKkNLDoKhHEFeSpSP5FW3Cx+olCra1RKcWV5csnT7zJuJ9Xu6vGWdy/DlsXeKS1kdiXvY+/kbaP7K7JmJiZ8E5M7pYVqooRCsVSpsDQ1NeOZFEgr/5f74Eh2GrP70Ouefr62v8cituaW+VUVj6vKZSplYlG+0IzfzsxcqlQkFRfsvv8rs3XpICe3kS4ebBWVWvXprWsppUUF0soxrp4Gt2NwLWNgXDkcjx8/joqKunz5MpOH6OTkNHDgwPHjx48YMaLuO+/Ro0dHjx69fPlyZmYmn8/v1q1bUFDQjBkz2NTFBw8efPnll8yxra3t2rVr2QgmOjr6/PnzzPHw4cOZ9EMAAGh2r7p6/STOLpZVPa2uPPv4UXAnb+a8l7Xde936fpt+S6FW5VaW/TfzrlZFHtHEzj5DO3Ti9PbGu3kVVVfFiB/VqJQn8x6crPMZuTGunnUHSGb79HkirciukDyTSb9OT9a66ikUzfbpo0/vhrXTXL23MCMa4bh69erf/va3a9eusd/jqKysTE9PP3369KNHj4YOHaqZBXn48OG5c+feuHGjpKSEiFQqVWFhYWJi4vHjx19++WUXFxciat++/eXLl8+ePfvo0aPU1FRvb28fHx8iKi4u/uCDD+7du/fo0aPS0tLly5drrvMEAAA9vXCEg4hMeDxLU7NfnxUQUVaFZJSLJ7/2B6S7UPRye+eSGmmxTKr54Q8THq+bqP0cn75N+ZmuzwgHo499h07tbJ5KqyQa33DhEbkLRX/z7hXcqWvdKnwT0yEdOilUqifSCs2cVmu++WhXzw/8+mntgSFVKphQxkVgzU6pGNBOU2q1OmPJ4Xj8+PHEiRMrKn5bqz106FCBQPDLL78wKZBE9Oabb65atYo5PnPmzMKFC+tryt7e/tixY0zMkZOTExwczKx19PT0PH78uEAg+OKLL9itplevXj1z5kzungsAAF5IplSmPS/+POU6Eb3t3Wtoh07tWmNJ5/MaWW6lpEohF5jxO7WzsdO1/agWJrn1mUxKRP/f3v2FVnneARx/oqZxzsRoJc26+CcOD7NURKE6jKhIxAsFId6JoqhIVFpR2l30zomlhUqpotWqCColFSlUVMQGI3YUZWInlbquBDOV1tgsNnFUjDuyi7c9zTrrOuZPT/XzuXrznj855+7Led/n+T1Z9ouRAwfddXDSX7r+/oc//zGlNONXI5blfrgn4U9/n/vyqoelWCLoyJEjhdp4++23s9Ga7e3t8+fPv3z5ckpp3759jY2NVVVVX3/99bp16wovfPnll6dPn97T03Po0KFt27allDo7O3fv3p1txjBixIgVK1ZkF1YuXrx44MCByZMnF2rjmWeemTdv3gP9ngD8h7K+fUeWV2bHvx5Q/lBqI6VU+URZ5RP/2+iWkpKS2vLK2u8+/I/503erXSZX1fw/73NfXvWwFEtwZFWRGT9+fHbw1FNPrVq16pNPvr2wl03kOnbsWOFnj5UrVy5evDg7XrNmTWtra7Z15v79+9esWZNNw1q4cOF7772XTfrYsmXLhx9+WPhHL774onsMAQjVffvWyauXUkq/HfRkYVHrY6hYgqMwiyultGHDhiVLlowePbpv374NDQ0NDQ29n3nq1KnCce8dnEpKSqZMmZIFx82bN1tbW7NNI8rLy9euXZtdgrl+/Xq26XVKafbs2XV1D21/fgB6G9iv9Pdjf5dSqi1/1Fa2/7Wr89ad/C/7lRbnvZwPTLHcw9HW1tbQ0FC4qpJSqqqqqq+vnzRpUl1dXUVFReH8rFmzLl68mB1PnTq199LZ9vb2Tz/9dgPdnTt3ZoPEUkr5fH7p0qUfffRR4ZmlpaWHDh2qra2N+0YAkPnbP7r+eefObyoe6wH3xRIcKaVz58698sorH3/8wxU+Q4cOXbZs2YIFC7JVKmPHjv0pAy82b97ce3rZ+++/n80Sy9TX12/duvU+fXAA4L8olksqKaVx48a98847J0+ePHHixNGjRws3anR0dLz66qttbW3ZsPUBAwYUguPZZ5/9sXfrPe+7p6dnz549vR9tbm4+f/78PV4OANxHRfQLR289PT2ff/55S0vLW2+9dfv2t0OBm5ubhw8fPn/+/DNnzmRnjh8/ng0EubempqbCktqCKVOm7Nixo8h37AaAR0NRbPx17dq11157raWlpaWl5ZtvvsnlctlQjIkTJ5aUlBTuEq2vr6+pqfnyyy9Pnz6dnRk0aNDEif+2e/+NGzeuXLkyZMj3e7x0dHS88MIL2bzTIUOGTJ06NRuVfunSpVwuN3r0XXZ0AQDur6KYkVFRUdHc3NzU1NTU1LRjx46urq7CQ9lS2Ey2H+js2bMLZzZt2rR79+7u7u6UUj6fP3v27MqVK5cvX37lyvcz9Hbu3JntRppSWr169UsvvVRWVpb9uXHjxhs3bkR+MwAgpeK5pLJ3797169dnxzU1NXPmzCkvL//ss88OHjyYnRwzZsyBAwdKS0tTStu3b9+4cWPvlw8bNuz69euFRS7PPffc3r17+/Tpc+HChblz5xbe4d133+3fv/+WLVvefPPN7OTatWsbGxsfwBcEgMdZsQRHPp9ft25dU1PTXR+trq7evn37mDFjCk9+/fXXd+3addcn19TUvPHGG+PGjbtz505jY+OJEyey89u2bZsxY0ZKqaura+7cuV988UVKqays7PDhw8OHD7/rWwEA90VR3MORUurTp8+0adNqa2uvXr3a3t5eOD948OAFCxZs2LBh5MiRvZ9cV1c3YcKE7u7utra2wvnq6upFixatX79+1KhRKaUPPvigsPZ1+vTpzz//fLbJfP/+/SsrK7MtwvL5fHd398yZMx/ElwSAx1Wx/MLR21dffdXZ2ZnP5wcOHPj000/363evtbtdXV0dHR23bt2qrKwcOnRo74myAECRKMbgAAAeMUWxSgUAeLQJDgAgnOAAAMIJDgAgnOAAAMIJDgAg3M8+OHK5XC6Xe9ifAgC4l599cAAAxU9wAADhBAcAEE5wAADhBAcAEE5wAADhBAcAEE5wAADhBAcAEE5wAADhBAcAEE5wAADhBAcAEE5wAADhBAcAEE5wAADhBAcAEE5wAADhBAcAEE5wAADhBAcAEE5wAADhBAcAEK6kp6fnYX8GAOAR5xcOACCc4AAAwgkOACCc4AAAwgkOACCc4AAAwgkOACCc4AAAwgkOACCc4AAAwgkOACCc4AAAwgkOACCc4AAAwgkOACCc4AAAwgkOACCc4AAAwgkOACCc4AAAwgkOACCc4AAAwgkOACCc4AAAwgkOACCc4AAAwgkOACCc4AAAwgkOACCc4AAAwgkOACCc4AAAwgkOACCc4AAAwgkOACCc4AAAwgkOACCc4AAAwgkOACCc4AAAwgkOACCc4AAAwgkOACCc4AAAwgkOACCc4AAAwgkOACCc4AAAwgkOACCc4ErT8oUAAAFfSURBVAAAwgkOACCc4AAAwgkOACCc4AAAwgkOACCc4AAAwgkOACCc4AAAwgkOACCc4AAAwgkOACCc4AAAwgkOACCc4AAAwgkOACCc4AAAwgkOACCc4AAAwgkOACCc4AAAwgkOACCc4AAAwgkOACCc4AAAwgkOACCc4AAAwgkOACCc4AAAwgkOACCc4AAAwgkOACCc4AAAwgkOACCc4AAAwgkOACCc4AAAwgkOACCc4AAAwgkOACCc4AAAwgkOACCc4AAAwgkOACCc4AAAwgkOACCc4AAAwgkOACCc4AAAwgkOACCc4AAAwgkOACCc4AAAwgkOACCc4AAAwgkOACCc4AAAwgkOACCc4AAAwgkOACCc4AAAwgkOACCc4AAAwgkOACCc4AAAwgkOACCc4AAAwgkOACCc4AAAwgkOACCc4AAAwgkOACCc4AAAwgkOACCc4AAAwgkOACCc4AAAwv0LI8zG+7iRAWAAAAAASUVORK5CYII=;" parent="1" vertex="1">
                    <mxGeometry x="248.09" y="520" width="143.82" height="160" as="geometry"/>
                </mxCell>
                <mxCell id="38" value="List" style="swimlane;fontStyle=0;childLayout=stackLayout;horizontal=1;startSize=26;horizontalStack=0;resizeParent=1;resizeParentMax=0;resizeLast=0;collapsible=1;marginBottom=0;fillColor=#d80073;strokeColor=#A50040;fontColor=#ffffff;" parent="1" vertex="1">
                    <mxGeometry x="440" y="520" width="140" height="130" as="geometry"/>
                </mxCell>
                <mxCell id="39" value="Foto do Vale Sim" style="text;strokeColor=none;fillColor=none;align=left;verticalAlign=top;spacingLeft=4;spacingRight=4;overflow=hidden;rotatable=0;points=[[0,0.5],[1,0.5]];portConstraint=eastwest;" parent="38" vertex="1">
                    <mxGeometry y="26" width="140" height="26" as="geometry"/>
                </mxCell>
                <mxCell id="40" value="Dados pessoais&#10;    - Nome completo&#10;    - CPF&#10;    - RG&#10;    - Data de Nacimento" style="text;strokeColor=none;fillColor=none;align=left;verticalAlign=top;spacingLeft=4;spacingRight=4;overflow=hidden;rotatable=0;points=[[0,0.5],[1,0.5]];portConstraint=eastwest;" parent="38" vertex="1">
                    <mxGeometry y="52" width="140" height="78" as="geometry"/>
                </mxCell>
                <mxCell id="44" value="List" style="swimlane;fontStyle=0;childLayout=stackLayout;horizontal=1;startSize=26;horizontalStack=0;resizeParent=1;resizeParentMax=0;resizeLast=0;collapsible=1;marginBottom=0;fillColor=#fa6800;strokeColor=#C73500;fontColor=#000000;" parent="1" vertex="1">
                    <mxGeometry x="630" y="520" width="140" height="130" as="geometry"/>
                </mxCell>
                <mxCell id="45" value="Horários de Cascavel " style="text;strokeColor=none;fillColor=none;align=left;verticalAlign=top;spacingLeft=4;spacingRight=4;overflow=hidden;rotatable=0;points=[[0,0.5],[1,0.5]];portConstraint=eastwest;" parent="44" vertex="1">
                    <mxGeometry y="26" width="140" height="26" as="geometry"/>
                </mxCell>
                <mxCell id="46" value="Renovação estudante" style="text;strokeColor=none;fillColor=none;align=left;verticalAlign=top;spacingLeft=4;spacingRight=4;overflow=hidden;rotatable=0;points=[[0,0.5],[1,0.5]];portConstraint=eastwest;" parent="44" vertex="1">
                    <mxGeometry y="52" width="140" height="26" as="geometry"/>
                </mxCell>
                <mxCell id="49" value="Notícias e Alertas" style="text;strokeColor=none;fillColor=none;align=left;verticalAlign=top;spacingLeft=4;spacingRight=4;overflow=hidden;rotatable=0;points=[[0,0.5],[1,0.5]];portConstraint=eastwest;" parent="44" vertex="1">
                    <mxGeometry y="78" width="140" height="26" as="geometry"/>
                </mxCell>
                <mxCell id="47" value="Acessibilidade" style="text;strokeColor=none;fillColor=none;align=left;verticalAlign=top;spacingLeft=4;spacingRight=4;overflow=hidden;rotatable=0;points=[[0,0.5],[1,0.5]];portConstraint=eastwest;" parent="44" vertex="1">
                    <mxGeometry y="104" width="140" height="26" as="geometry"/>
                </mxCell>
            </root>
        </mxGraphModel>
    </diagram>
</mxfile>